<?xml version="1.0" encoding="UTF-8"?>
<svg xmlns="http://www.w3.org/2000/svg" width="2130.64" height="619.48" viewBox="0 0 2130.64 619.48">
  <defs>
    <style>
      .cls-1 {
        fill: none;
        stroke: #1d1d1b;
        stroke-dasharray: 0 0 11.34 11.34;
        stroke-miterlimit: 10;
        strokeWidth: .99px;
      }

      .cls-2 {
        fill: #878787;
      }

      .cls-2, .cls-3 {
        strokeWidth: 0px;
      }

      .cls-3 {
        fill: #1d1d1b;
      }
    </style>
  </defs>
  <g id="displaced">
    <g>
      <polygon class="cls-2" points="115.67 236.76 102.13 213.31 114.85 191.27 102.13 169.24 115.67 145.79 142.75 145.79 156.29 169.24 143.57 191.27 156.29 213.31 142.75 236.76 115.67 236.76"/>
      <path class="cls-3" d="M141.93,147.2l12.72,22.03-12.72,22.03,12.72,22.03-12.72,22.03h-25.44l-12.72-22.03,12.72-22.03-12.72-22.03,12.72-22.03h25.44M143.57,144.37h-28.72l-.82,1.42-12.72,22.03-.82,1.42.82,1.42,11.9,20.62-11.9,20.62-.82,1.42.82,1.42,12.72,22.03.82,1.42h28.72l.82-1.42,12.72-22.03.82-1.42-.82-1.42-11.9-20.62,11.9-20.62.82-1.42-.82-1.42-12.72-22.03-.82-1.42h0Z"/>
    </g>
    <g>
      <polygon class="cls-2" points="207.78 236.76 194.24 213.31 206.96 191.27 194.24 169.24 207.78 145.79 234.86 145.79 247.58 167.82 273.02 167.82 286.56 191.27 273.02 214.73 247.58 214.73 234.86 236.76 207.78 236.76"/>
      <path class="cls-3" d="M234.04,147.2l12.72,22.03h25.44l12.72,22.03-12.72,22.03h-25.44l-12.72,22.03h-25.44l-12.72-22.03,12.72-22.03-12.72-22.03,12.72-22.03h25.44M235.67,144.37h-28.72l-.82,1.42-12.72,22.03-.82,1.42.82,1.42,11.9,20.62-11.9,20.62-.82,1.42.82,1.42,12.72,22.03.82,1.42h28.72l.82-1.42,11.9-20.62h25.44l.82-1.42,12.72-22.03.82-1.42-.82-1.42-12.72-22.03-.82-1.42h-25.44l-11.9-20.62-.82-1.42h0Z"/>
    </g>
    <g>
      <polygon class="cls-2" points="383.14 236.76 370.42 214.73 344.98 214.73 331.44 191.27 344.98 167.82 370.42 167.82 383.14 145.79 410.22 145.79 422.94 167.82 448.39 167.82 461.93 191.27 448.39 214.73 422.94 214.73 410.22 236.76 383.14 236.76"/>
      <path class="cls-3" d="M409.4,147.2l12.72,22.03h25.44l12.72,22.03-12.72,22.03h-25.44l-12.72,22.03h-25.44l-12.72-22.03h-25.44l-12.72-22.03,12.72-22.03h25.44l12.72-22.03h25.44M411.04,144.37h-28.72l-.82,1.42-11.9,20.62h-25.44l-.82,1.42-12.72,22.03-.82,1.42.82,1.42,12.72,22.03.82,1.42h25.44l11.9,20.62.82,1.42h28.72l.82-1.42,11.9-20.62h25.44l.82-1.42,12.72-22.03.82-1.42-.82-1.42-12.72-22.03-.82-1.42h-25.44l-11.9-20.62-.82-1.42h0Z"/>
    </g>
    <g>
      <polygon class="cls-2" points="1741.57 258.8 1728.85 236.76 1703.4 236.76 1690.68 214.73 1666.87 214.73 1654.15 236.76 1627.07 236.76 1613.53 213.31 1626.25 191.27 1613.53 169.24 1627.07 145.79 1652.51 145.79 1665.24 123.75 1692.32 123.75 1705.04 145.79 1730.48 145.79 1743.2 167.82 1767.01 167.82 1779.73 145.79 1806.81 145.79 1820.35 169.24 1807.63 191.27 1820.35 213.31 1806.81 236.76 1781.37 236.76 1768.65 258.8 1741.57 258.8"/>
      <path class="cls-3" d="M1691.5,125.17l12.72,22.03h25.44l12.72,22.03h25.44s12.72-22.03,12.72-22.03h25.44l12.72,22.03-12.72,22.03,12.72,22.03-12.72,22.03h-25.44l-12.72,22.03h-25.44l-12.72-22.03h0s-25.44,0-25.44,0l-12.72-22.03h-25.44l-12.72,22.03h-25.44l-12.72-22.03,12.72-22.03-12.72-22.03,12.72-22.03h25.44l12.72-22.03h25.44M1693.13,122.33h-28.72l-.82,1.42-11.9,20.62h-25.44l-.82,1.42-12.72,22.03-.82,1.42.82,1.42,11.9,20.62-11.9,20.62-.82,1.42.82,1.42,12.72,22.03.82,1.42h28.72l.82-1.42,11.9-20.62h22.17l11.9,20.62.82,1.42h25.44l11.9,20.62.82,1.42h28.72l.82-1.42,11.9-20.62h25.44l.82-1.42,12.72-22.03.82-1.42-.82-1.42-11.9-20.62,11.9-20.62.82-1.42-.82-1.42-12.72-22.03-.82-1.42h-28.72l-.82,1.42-11.9,20.62h-22.17s-11.9-20.62-11.9-20.62l-.82-1.42h-25.44l-11.9-20.62-.82-1.42h0Z"/>
    </g>
    <g>
      <polygon class="cls-2" points="1991.69 258.79 1978.97 236.76 1953.53 236.76 1940.81 214.73 1917 214.73 1904.28 236.76 1877.2 236.76 1863.66 213.31 1876.38 191.27 1863.66 169.24 1877.2 145.79 1902.64 145.79 1914.55 125.17 1901.82 103.13 1915.36 79.68 1942.44 79.68 1955.98 103.13 1943.26 125.17 1955.17 145.79 1980.61 145.79 1993.33 167.82 2017.14 167.82 2029.86 145.79 2056.94 145.79 2070.48 169.24 2057.76 191.27 2070.48 213.31 2056.94 236.76 2031.5 236.76 2018.78 258.79 1991.69 258.79"/>
      <path class="cls-3" d="M1941.63,81.1l12.72,22.03-12.72,22.04,12.72,22.03h25.44l12.72,22.03h25.44l12.72-22.03h25.44l12.72,22.03-12.72,22.03,12.72,22.03-12.72,22.03h-25.44l-12.72,22.03h-25.44l-12.72-22.03h-25.44l-12.72-22.03h-25.44l-12.72,22.03h-25.44l-12.72-22.03,12.72-22.03-12.72-22.03,12.72-22.03h25.44l12.72-22.03-12.72-22.04,12.72-22.03h25.44M1943.26,78.26h-28.72l-.82,1.42-12.72,22.03-.82,1.42.82,1.42,11.9,20.62-11.09,19.2h-25.44l-.82,1.42-12.72,22.03-.82,1.42.82,1.42,11.9,20.62-11.9,20.62-.82,1.42.82,1.42,12.72,22.03.82,1.42h28.72l.82-1.42,11.9-20.62h22.17l11.9,20.62.82,1.42h25.44l11.9,20.62.82,1.42h28.72l.82-1.42,11.9-20.62h25.44l.82-1.42,12.72-22.03.82-1.42-.82-1.42-11.9-20.62,11.9-20.62.82-1.42-.82-1.42-12.72-22.03-.82-1.42h-28.72l-.82,1.42-11.9,20.62h-22.17l-11.9-20.62-.82-1.42h-25.44l-11.09-19.2,11.9-20.62.82-1.42-.82-1.42-12.72-22.03-.82-1.42h0Z"/>
    </g>
    <g>
      <polygon class="cls-2" points="1711.37 523.11 1697.83 499.66 1710.55 477.63 1698.64 457.01 1673.43 457.01 1660.7 434.98 1636.9 434.98 1624.18 457.01 1597.09 457.01 1583.55 433.56 1596.28 411.52 1583.55 389.49 1597.09 366.04 1622.54 366.04 1634.44 345.42 1621.72 323.38 1635.26 299.93 1662.34 299.93 1675.06 321.97 1700.51 321.97 1714.05 345.42 1701.32 367.45 1713.23 388.07 1737.03 388.07 1749.76 366.04 1776.84 366.04 1790.38 389.49 1777.66 411.52 1790.38 433.56 1776.84 457.01 1751.17 457.01 1739.27 477.63 1751.99 499.66 1738.45 523.11 1711.37 523.11"/>
      <path class="cls-3" d="M1661.52,301.35l12.72,22.03h25.44l12.72,22.03-12.72,22.03,12.72,22.03h25.44l12.72-22.03h25.44l12.72,22.03-12.72,22.03,12.72,22.03-12.72,22.03h-25.67s-12.72,22.03-12.72,22.03l12.72,22.03-12.72,22.03h-25.44l-12.72-22.03,12.72-22.03-12.72-22.03h-25.22l-12.72-22.03h-25.44l-12.72,22.03h-25.44l-12.72-22.03,12.72-22.04-12.72-22.03,12.72-22.03h25.44l12.72-22.03-12.72-22.03,12.72-22.03h25.44M1663.16,298.51h-28.72l-.82,1.42-12.72,22.03-.82,1.42.82,1.42,11.9,20.62-11.09,19.2h-25.44l-.82,1.42-12.72,22.03-.82,1.42.82,1.42,11.9,20.62-11.9,20.62-.82,1.42.82,1.42,12.72,22.03.82,1.42h28.72l.82-1.42,11.9-20.62h22.17l11.9,20.62.82,1.42h25.22l11.08,19.2-11.9,20.62-.82,1.42.82,1.42,12.72,22.03.82,1.42h28.72l.82-1.42,12.72-22.03.82-1.42-.82-1.42-11.9-20.62,11.08-19.2h25.67l.82-1.42,12.72-22.03.82-1.42-.82-1.42-11.9-20.62,11.9-20.62.82-1.42-.82-1.42-12.72-22.03-.82-1.42h-28.72l-.82,1.42-11.9,20.62h-22.17l-11.09-19.2,11.9-20.62.82-1.42-.82-1.42-12.72-22.03-.82-1.42h-25.44l-11.9-20.62-.82-1.42h0Z"/>
    </g>
    <g>
      <polygon class="cls-2" points="1431.26 523.11 1417.72 499.66 1430.44 477.63 1418.54 457.01 1393.32 457.01 1380.6 434.98 1356.79 434.98 1344.07 457.01 1316.99 457.01 1303.45 433.56 1316.17 411.52 1303.45 389.49 1316.99 366.04 1342.43 366.04 1354.34 345.42 1341.62 323.38 1355.16 299.93 1380.6 299.93 1393.32 277.9 1420.4 277.9 1433.94 301.35 1421.22 323.38 1433.94 345.42 1421.22 367.45 1433.12 388.07 1456.93 388.07 1469.65 366.04 1496.73 366.04 1510.27 389.49 1497.55 411.52 1510.27 433.56 1496.73 457.01 1471.06 457.01 1459.16 477.63 1471.88 499.66 1458.34 523.11 1431.26 523.11"/>
      <path class="cls-3" d="M1419.58,279.31l12.72,22.03-12.72,22.03,12.72,22.03-12.72,22.03,12.72,22.03h25.44l12.72-22.03h25.44l12.72,22.03-12.72,22.03,12.72,22.03-12.72,22.03h-25.67s-12.72,22.03-12.72,22.03l12.72,22.03-12.72,22.03h-25.44l-12.72-22.03,12.72-22.03-12.72-22.03h-25.22l-12.72-22.03h-25.44l-12.72,22.03h-25.44l-12.72-22.03,12.72-22.04-12.72-22.03,12.72-22.03h25.44l12.72-22.03-12.72-22.03,12.72-22.03h25.44l12.72-22.03h25.44M1421.22,276.48h-28.72l-.82,1.42-11.9,20.62h-25.44l-.82,1.42-12.72,22.04-.82,1.42.82,1.42,11.9,20.62-11.09,19.2h-25.44l-.82,1.42-12.72,22.03-.82,1.42.82,1.42,11.9,20.62-11.9,20.62-.82,1.42.82,1.42,12.72,22.03.82,1.42h28.72l.82-1.42,11.9-20.62h22.17l11.9,20.62.82,1.42h25.22l11.08,19.2-11.9,20.62-.82,1.42.82,1.42,12.72,22.03.82,1.42h28.72l.82-1.42,12.72-22.03.82-1.42-.82-1.42-11.9-20.62,11.08-19.2h25.67l.82-1.42,12.72-22.03.82-1.42-.82-1.42-11.9-20.62,11.9-20.62.82-1.42-.82-1.42-12.72-22.03-.82-1.42h-28.72l-.82,1.42-11.9,20.62h-22.17l-11.09-19.2,11.9-20.62.82-1.42-.82-1.42-11.9-20.62,11.9-20.62.82-1.42-.82-1.42-12.72-22.03-.82-1.42h0Z"/>
    </g>
    <g>
      <polygon class="cls-2" points="1143.55 523.11 1130.01 499.66 1142.73 477.63 1130.82 457.01 1105.38 457.01 1092.66 434.97 1068.85 434.97 1056.13 457.01 1029.05 457.01 1015.51 433.56 1028.23 411.52 1015.51 389.49 1028.12 367.65 1015.28 345.42 1028.82 321.97 1054.49 321.97 1067.21 299.93 1092.66 299.93 1105.38 277.9 1132.46 277.9 1146 301.35 1133.28 323.38 1146 345.42 1133.28 367.45 1145.18 388.07 1168.99 388.07 1181.71 366.04 1208.79 366.04 1222.33 389.49 1209.61 411.52 1222.33 433.56 1208.79 457.01 1183.35 457.01 1171.44 477.63 1184.17 499.66 1170.63 523.11 1143.55 523.11"/>
      <path class="cls-3" d="M1131.64,279.31l12.72,22.03-12.72,22.04,12.72,22.03-12.72,22.03,12.72,22.03h25.44l12.72-22.03h25.44l12.72,22.03-12.72,22.03,12.72,22.03-12.72,22.03h-25.44l-12.72,22.03,12.72,22.03-12.72,22.03h-25.44l-12.72-22.03,12.72-22.03-12.72-22.03h-25.44l-12.72-22.03h-25.44l-12.72,22.03h-25.44l-12.72-22.03,12.72-22.03-12.72-22.03,12.72-22.03h-.23s-12.72-22.04-12.72-22.04l12.72-22.03h25.67s12.72-22.03,12.72-22.03h25.44l12.72-22.03h25.44M1133.28,276.48h-28.72l-.82,1.42-11.9,20.62h-25.44l-.82,1.42-11.9,20.62h-25.67l-.82,1.42-12.72,22.03-.82,1.42.82,1.42,12.02,20.81-11.79,20.42-.82,1.42.82,1.42,11.9,20.62-11.9,20.62-.82,1.42.82,1.42,12.72,22.03.82,1.42h28.72l.82-1.42,11.9-20.62h22.17l11.9,20.62.82,1.42h25.44l11.09,19.2-11.9,20.62-.82,1.42.82,1.42,12.72,22.03.82,1.42h28.72l.82-1.42,12.72-22.04.82-1.42-.82-1.42-11.9-20.62,11.09-19.2h25.44l.82-1.42,12.72-22.03.82-1.42-.82-1.42-11.9-20.62,11.9-20.62.82-1.42-.82-1.42-12.72-22.03-.82-1.42h-28.72l-.82,1.42-11.9,20.62h-22.17l-11.09-19.2,11.9-20.62.82-1.42-.82-1.42-11.9-20.62,11.9-20.62.82-1.42-.82-1.42-12.72-22.03-.82-1.42h0Z"/>
    </g>
    <g>
      <polygon class="cls-2" points="206.23 523.11 192.69 499.66 205.41 477.63 193.51 457.01 168.06 457.01 155.34 434.97 131.54 434.97 118.81 457.01 91.73 457.01 78.19 433.56 90.91 411.52 79.01 390.9 54.98 390.9 42.26 412.94 15.18 412.94 1.64 389.49 15.18 366.03 40.4 366.03 52.41 345.22 39.8 323.38 53.34 299.93 80.42 299.93 93.14 321.97 117.18 321.97 129.9 299.93 155.34 299.93 168.06 277.9 195.14 277.9 208.69 301.35 195.96 323.38 208.69 345.42 195.96 367.45 207.87 388.07 231.67 388.07 244.4 366.04 271.48 366.04 285.02 389.49 272.29 411.52 285.02 433.56 271.48 457.01 246.03 457.01 234.13 477.63 246.85 499.66 233.31 523.11 206.23 523.11"/>
      <path class="cls-3" d="M194.33,279.31l12.72,22.03-12.72,22.03,12.72,22.03-12.72,22.03,12.72,22.03h25.44l12.72-22.03h25.44l12.72,22.03-12.72,22.03,12.72,22.03-12.72,22.03h-25.44l-12.72,22.03,12.72,22.03-12.72,22.03h-25.44l-12.72-22.03,12.72-22.03-12.72-22.03h-25.44l-12.72-22.03h-25.44l-12.72,22.03h-25.44l-12.72-22.03,12.72-22.04-12.72-22.03h-.45s-25.22,0-25.22,0h0s-12.72,22.04-12.72,22.04H16l-12.72-22.03,12.72-22.03h25.22,0s12.72-22.04,12.72-22.04h.23l-12.72-22.03,12.72-22.03h25.44l12.72,22.03h25.67s12.72-22.03,12.72-22.03h25.44l12.72-22.03h25.44M195.96,276.48h-28.72l-.82,1.42-11.9,20.62h-25.44l-.82,1.42-11.9,20.62h-22.4l-11.9-20.62-.82-1.42h-28.72l-.82,1.42-12.72,22.03-.82,1.42.82,1.42,11.79,20.42-11.2,19.4H14.36l-.82,1.42-12.72,22.03-.82,1.42.82,1.42,12.72,22.03.82,1.42h28.72l.82-1.42,11.9-20.62h22.39l11.09,19.2-11.9,20.62-.82,1.42.82,1.42,12.72,22.03.82,1.42h28.72l.82-1.42,11.9-20.62h22.17l11.9,20.62.82,1.42h25.44l11.09,19.2-11.9,20.62-.82,1.42.82,1.42,12.72,22.03.82,1.42h28.72l.82-1.42,12.72-22.03.82-1.42-.82-1.42-11.9-20.62,11.09-19.2h25.44l.82-1.42,12.72-22.03.82-1.42-.82-1.42-11.9-20.62,11.9-20.62.82-1.42-.82-1.42-12.72-22.03-.82-1.42h-28.72l-.82,1.42-11.9,20.62h-22.17l-11.09-19.2,11.9-20.62.82-1.42-.82-1.42-11.9-20.62,11.9-20.62.82-1.42-.82-1.42-12.72-22.03-.82-1.42h0Z"/>
    </g>
    <g>
      <polygon class="cls-2" points="15.18 214.73 1.64 191.27 15.18 167.82 42.26 167.82 55.8 191.27 42.26 214.73 15.18 214.73"/>
      <path class="cls-3" d="M41.44,169.24l12.72,22.03-12.72,22.03H16l-12.72-22.03,12.72-22.03h25.44M43.08,166.4H14.36l-.82,1.42L.82,189.86l-.82,1.42.82,1.42,12.72,22.03.82,1.42h28.72l.82-1.42,12.72-22.03.82-1.42-.82-1.42-12.72-22.03-.82-1.42h0Z"/>
    </g>
    <g>
      <polygon class="cls-2" points="833.8 236.76 821.08 214.73 797.27 214.73 784.55 236.76 757.47 236.76 744.75 214.73 719.3 214.73 705.76 191.27 718.49 169.24 705.76 147.2 719.3 123.75 746.38 123.75 759.11 145.79 784.55 145.79 797.27 167.82 822.72 167.82 835.44 189.86 860.88 189.86 874.42 213.31 860.88 236.76 833.8 236.76"/>
      <path class="cls-3" d="M745.57,125.17l12.72,22.03h25.44l12.72,22.03h25.44l12.72,22.03h25.44l12.72,22.03-12.72,22.03h-25.44l-12.72-22.03h-25.44l-12.72,22.03h-25.44l-12.72-22.03h-25.44l-12.72-22.03,12.72-22.03-12.72-22.03,12.72-22.03h25.44M747.2,122.33h-28.72l-.82,1.42-12.72,22.03-.82,1.42.82,1.42,11.9,20.62-11.9,20.62-.82,1.42.82,1.42,12.72,22.03.82,1.42h25.44l11.9,20.62.82,1.42h28.72l.82-1.42,11.9-20.62h22.17l11.9,20.62.82,1.42h28.72l.82-1.42,12.72-22.03.82-1.42-.82-1.42-12.72-22.03-.82-1.42h-25.44l-11.9-20.62-.82-1.42h-25.44l-11.9-20.62-.82-1.42h-25.44l-11.9-20.62-.82-1.42h0Z"/>
    </g>
    <g>
      <polygon class="cls-2" points="858.56 523.11 845.02 499.66 857.74 477.63 845.84 457.01 820.39 457.01 807.67 434.97 783.86 434.97 771.14 457.01 744.06 457.01 730.52 433.56 743.24 411.52 731.34 390.9 705.9 390.9 692.36 367.45 705.9 344 731.11 344 743.84 321.97 769.29 321.97 782.23 299.93 807.67 299.93 820.39 277.9 847.47 277.9 861.01 301.35 848.29 323.38 861.01 345.42 848.29 367.45 860.2 388.07 884 388.07 896.72 366.04 923.8 366.04 937.34 389.49 924.62 411.52 937.34 433.56 923.8 457.01 898.36 457.01 886.46 477.63 899.18 499.66 885.64 523.11 858.56 523.11"/>
      <path class="cls-3" d="M846.65,279.31l12.72,22.03-12.72,22.04,12.72,22.03-12.72,22.03,12.72,22.03h25.44l12.72-22.03h25.44l12.72,22.03-12.72,22.03,12.72,22.03-12.72,22.03h-25.44l-12.72,22.03,12.72,22.03-12.72,22.03h-25.44l-12.72-22.03,12.72-22.03-12.72-22.03h-25.44l-12.72-22.03h-25.44l-12.72,22.03h-25.44l-12.72-22.03,12.72-22.03-12.72-22.03h-25.44l-12.72-22.03,12.72-22.03h25.22,0s12.72-22.04,12.72-22.04h25.44l12.95-22.03h25.44l12.72-22.03h25.44M848.29,276.48h-28.72l-.82,1.42-11.9,20.62h-25.43l-.82,1.4-12.13,20.64h-25.46l-.82,1.42-11.9,20.62h-25.22l-.82,1.42-12.72,22.03-.82,1.42.82,1.42,12.72,22.03.82,1.42h25.44l11.09,19.2-11.9,20.62-.82,1.42.82,1.42,12.72,22.03.82,1.42h28.72l.82-1.42,11.9-20.62h22.17l11.9,20.62.82,1.42h25.44l11.09,19.2-11.9,20.62-.82,1.42.82,1.42,12.72,22.04.82,1.42h28.72l.82-1.42,12.72-22.03.82-1.42-.82-1.42-11.9-20.62,11.09-19.2h25.44l.82-1.42,12.72-22.03.82-1.42-.82-1.42-11.9-20.62,11.9-20.62.82-1.42-.82-1.42-12.72-22.03-.82-1.42h-28.72l-.82,1.42-11.9,20.62h-22.17l-11.09-19.2,11.9-20.62.82-1.42-.82-1.42-11.9-20.62,11.9-20.62.82-1.42-.82-1.42-12.72-22.03-.82-1.42h0Z"/>
    </g>
    <g>
      <polygon class="cls-2" points="1034.44 236.76 1021.71 214.73 997.91 214.73 985.18 236.76 958.1 236.76 945.38 214.73 919.94 214.73 906.4 191.27 919.12 169.24 906.4 147.2 919.94 123.75 947.02 123.75 959.74 145.79 985.18 145.79 997.91 167.82 1021.71 167.82 1034.44 145.79 1061.52 145.79 1075.06 169.24 1062.33 191.27 1075.06 213.31 1061.52 236.76 1034.44 236.76"/>
      <path class="cls-3" d="M946.2,125.17l12.72,22.03h25.44l12.72,22.03h25.44l12.72-22.03h25.44l12.72,22.03-12.72,22.03,12.72,22.03-12.72,22.03h-25.44l-12.72-22.03h-25.44l-12.72,22.03h-25.44l-12.72-22.03h-25.44l-12.72-22.03,12.72-22.03-12.72-22.03,12.72-22.03h25.44M947.84,122.33h-28.72l-.82,1.42-12.72,22.03-.82,1.42.82,1.42,11.9,20.62-11.9,20.62-.82,1.42.82,1.42,12.72,22.03.82,1.42h25.44l11.9,20.62.82,1.42h28.72l.82-1.42,11.9-20.62h22.17l11.9,20.62.82,1.42h28.72l.82-1.42,12.72-22.03.82-1.42-.82-1.42-11.9-20.62,11.9-20.62.82-1.42-.82-1.42-12.72-22.04-.82-1.42h-28.72l-.82,1.42-11.9,20.62h-22.17l-11.9-20.62-.82-1.42h-25.44l-11.9-20.62-.82-1.42h0Z"/>
    </g>
    <g>
      <polygon class="cls-2" points="1218.03 258.79 1205.31 236.76 1179.87 236.76 1167.15 214.73 1141.7 214.73 1128.16 191.27 1140.89 169.24 1128.16 147.2 1141.7 123.75 1168.78 123.75 1181.51 145.79 1206.95 145.79 1219.67 167.82 1243.48 167.82 1256.2 145.79 1283.28 145.79 1296.82 169.24 1284.1 191.27 1296.82 213.31 1283.28 236.76 1257.84 236.76 1245.12 258.79 1218.03 258.79"/>
      <path class="cls-3" d="M1167.97,125.17l12.72,22.03h25.44l12.72,22.03h25.44l12.72-22.03h25.44l12.72,22.03-12.72,22.03,12.72,22.03-12.72,22.03h-25.44l-12.72,22.03h-25.44l-12.72-22.03h-25.44l-12.72-22.03h-25.44l-12.72-22.03,12.72-22.03-12.72-22.03,12.72-22.03h25.44M1169.6,122.33h-28.72l-.82,1.42-12.72,22.03-.82,1.42.82,1.42,11.9,20.62-11.9,20.62-.82,1.42.82,1.42,12.72,22.03.82,1.42h25.44l11.9,20.62.82,1.42h25.44l11.9,20.62.82,1.42h28.72l.82-1.42,11.9-20.62h25.44l.82-1.42,12.72-22.03.82-1.42-.82-1.42-11.9-20.62,11.9-20.62.82-1.42-.82-1.42-12.72-22.04-.82-1.42h-28.72l-.82,1.42-11.9,20.62h-22.17l-11.9-20.62-.82-1.42h-25.44l-11.9-20.62-.82-1.42h0Z"/>
    </g>
    <g>
      <polygon class="cls-2" points="1481.03 258.79 1468.31 236.76 1442.87 236.76 1430.14 214.73 1406.34 214.73 1393.62 236.76 1366.54 236.76 1352.99 213.31 1366.54 189.86 1391.98 189.86 1403.88 169.24 1391.16 147.2 1404.7 123.75 1431.78 123.75 1444.5 145.79 1469.95 145.79 1482.67 167.82 1506.48 167.82 1519.2 145.79 1546.28 145.79 1559.82 169.24 1547.1 191.27 1559.82 213.31 1546.28 236.76 1520.83 236.76 1508.11 258.79 1481.03 258.79"/>
      <path class="cls-3" d="M1430.96,125.17l12.72,22.03h25.44l12.72,22.03h25.44l12.72-22.03h25.44l12.72,22.03-12.72,22.03,12.72,22.03-12.72,22.03h-25.44l-12.72,22.03h-25.44l-12.72-22.03h-25.44l-12.72-22.03h-25.44l-12.72,22.03h-25.44l-12.72-22.03,12.72-22.03h25.44l12.72-22.03-12.72-22.03,12.72-22.03h25.44M1432.6,122.33h-28.72l-.82,1.42-12.72,22.03-.82,1.42.82,1.42,11.9,20.62-11.09,19.2h-25.44l-.82,1.42-12.72,22.03-.82,1.42.82,1.42,12.72,22.03.82,1.42h28.72l.82-1.42,11.9-20.62h22.17l11.9,20.62.82,1.42h25.44l11.9,20.62.82,1.42h28.72l.82-1.42,11.9-20.62h25.44l.82-1.42,12.72-22.03.82-1.42-.82-1.42-11.9-20.62,11.9-20.62.82-1.42-.82-1.42-12.72-22.03-.82-1.42h-28.72l-.82,1.42-11.9,20.62h-22.17l-11.9-20.62-.82-1.42h-25.44l-11.9-20.62-.82-1.42h0Z"/>
    </g>
    <g>
      <polygon class="cls-2" points="1991.47 523.11 1977.93 499.66 1990.65 477.63 1978.75 457.01 1953.53 457.01 1940.81 434.98 1917 434.98 1904.28 457.01 1877.2 457.01 1863.66 433.56 1876.38 411.52 1863.66 389.49 1877.2 366.04 1902.64 366.04 1914.55 345.42 1901.82 323.38 1915.36 299.93 1942.44 299.93 1955.98 323.38 1943.26 345.42 1955.17 366.04 1980.61 366.04 1993.33 388.07 2017.14 388.07 2029.86 366.04 2056.94 366.04 2070.48 389.49 2057.76 411.52 2070.48 433.56 2056.94 457.01 2031.27 457.01 2019.37 477.63 2032.09 499.66 2018.55 523.11 1991.47 523.11"/>
      <path class="cls-3" d="M1941.63,301.35l12.72,22.03-12.72,22.03,12.72,22.03h25.44l12.72,22.03h25.44l12.72-22.03h25.44l12.72,22.03-12.72,22.03,12.72,22.03-12.72,22.03h-25.67s-12.72,22.03-12.72,22.03l12.72,22.03-12.72,22.03h-25.44l-12.72-22.03,12.72-22.03-12.72-22.03h-25.22l-12.72-22.03h-25.44l-12.72,22.03h-25.44l-12.72-22.03,12.72-22.03-12.72-22.03,12.72-22.03h25.44l12.72-22.03-12.72-22.03,12.72-22.03h25.44M1943.26,298.51h-28.72l-.82,1.42-12.72,22.03-.82,1.42.82,1.42,11.9,20.62-11.09,19.2h-25.44l-.82,1.42-12.72,22.03-.82,1.42.82,1.42,11.9,20.62-11.9,20.62-.82,1.42.82,1.42,12.72,22.03.82,1.42h28.72l.82-1.42,11.9-20.62h22.17l11.9,20.62.82,1.42h25.22l11.08,19.2-11.9,20.62-.82,1.42.82,1.42,12.72,22.03.82,1.42h28.72l.82-1.42,12.72-22.03.82-1.42-.82-1.42-11.9-20.62,11.08-19.2h25.67l.82-1.42,12.72-22.03.82-1.42-.82-1.42-11.9-20.62,11.9-20.62.82-1.42-.82-1.42-12.72-22.03-.82-1.42h-28.72l-.82,1.42-11.9,20.62h-22.17l-11.9-20.62-.82-1.42h-25.44l-11.09-19.2,11.9-20.62.82-1.42-.82-1.42-12.72-22.03-.82-1.42h0Z"/>
    </g>
    <g>
      <polygon class="cls-2" points="557.78 523.11 544.24 499.66 556.96 477.63 545.06 457.01 519.62 457.01 506.89 434.97 483.09 434.97 470.37 457.01 443.29 457.01 429.74 433.56 442.47 411.52 430.56 390.9 406.76 390.9 394.03 412.94 366.95 412.94 353.41 389.49 366.95 366.04 392.17 366.04 404.89 344 430.34 344 443.06 321.97 468.73 321.97 481.45 299.93 506.89 299.93 519.62 277.9 546.7 277.9 560.24 301.35 547.52 323.38 560.24 345.42 547.52 367.45 559.42 388.07 583.23 388.07 595.95 366.04 623.03 366.04 636.57 389.49 623.85 411.52 636.57 433.56 623.03 457.01 597.58 457.01 585.68 477.63 598.4 499.66 584.86 523.11 557.78 523.11"/>
      <path class="cls-3" d="M545.88,279.31l12.72,22.03-12.72,22.03,12.72,22.03-12.72,22.03,12.72,22.03h25.44l12.72-22.03h25.44l12.72,22.03-12.72,22.03,12.72,22.04-12.72,22.03h-25.44l-12.72,22.03,12.72,22.03-12.72,22.03h-25.44l-12.72-22.03,12.72-22.03-12.72-22.03h-25.44l-12.72-22.03h-25.44l-12.72,22.03h-25.44l-12.72-22.03,12.72-22.03-12.72-22.03h-.23s-25.22,0-25.22,0h0s-12.72,22.04-12.72,22.04h-25.44l-12.72-22.03,12.72-22.03h25.22,0s12.72-22.04,12.72-22.04h25.44l12.72-22.03h25.67s12.72-22.03,12.72-22.03h25.44l12.72-22.03h25.44M547.51,276.48h-28.72l-.82,1.42-11.9,20.62h-25.44l-.82,1.42-11.9,20.62h-25.67l-.82,1.42-11.9,20.62h-25.44l-.82,1.42-11.9,20.62h-25.22l-.82,1.42-12.72,22.03-.82,1.42.82,1.42,12.72,22.03.82,1.42h28.72l.82-1.42,11.9-20.62h22.17l11.09,19.2-11.9,20.62-.82,1.42.82,1.42,12.72,22.03.82,1.42h28.72l.82-1.42,11.9-20.62h22.17l11.9,20.62.82,1.42h25.44l11.09,19.2-11.9,20.62-.82,1.42.82,1.42,12.72,22.03.82,1.42h28.72l.82-1.42,12.72-22.03.82-1.42-.82-1.42-11.9-20.62,11.09-19.2h25.44l.82-1.42,12.72-22.03.82-1.42-.82-1.42-11.9-20.62,11.9-20.62.82-1.42-.82-1.42-12.72-22.03-.82-1.42h-28.72l-.82,1.42-11.9,20.62h-22.17l-11.09-19.2,11.9-20.62.82-1.42-.82-1.42-11.9-20.62,11.9-20.62.82-1.42-.82-1.42-12.72-22.03-.82-1.42h0Z"/>
    </g>
    <g>
      <polygon class="cls-2" points="630.25 236.76 617.53 214.73 593.72 214.73 581 236.76 553.92 236.76 541.2 214.73 515.75 214.73 502.21 191.27 515.75 167.82 541.2 167.82 553.92 145.79 581 145.79 593.72 167.82 619.17 167.82 631.89 189.86 657.33 189.86 670.87 213.31 657.33 236.76 630.25 236.76"/>
      <path class="cls-3" d="M580.18,147.2l12.72,22.03h25.44l12.72,22.03h25.44l12.72,22.03-12.72,22.03h-25.44l-12.72-22.03h-25.44l-12.72,22.03h-25.44l-12.72-22.03h-25.44l-12.72-22.03,12.72-22.03h25.44l12.72-22.03h25.44M581.82,144.37h-28.72l-.82,1.42-11.9,20.62h-25.44l-.82,1.42-12.72,22.03-.82,1.42.82,1.42,12.72,22.03.82,1.42h25.44l11.9,20.62.82,1.42h28.72l.82-1.42,11.9-20.62h22.17l11.9,20.62.82,1.42h28.72l.82-1.42,12.72-22.03.82-1.42-.82-1.42-12.72-22.03-.82-1.42h-25.44l-11.9-20.62-.82-1.42h-25.44l-11.9-20.62-.82-1.42h0Z"/>
    </g>
  </g>
  <g id="evolution">
    <g>
      <path class="cls-1" d="M35.97,18.4h1964.17c71.8,0,130,58.2,130,130v322.77c0,71.8-58.2,130-130,130H34.18"/>
      <polygon class="cls-3" points="8.54 36.6 39.27 18.3 8.54 0 8.54 36.6"/>
      <polygon class="cls-3" points="39.54 582.87 7.84 601.17 39.54 619.48 39.54 582.87"/>
    </g>
  </g>
</svg>