<?xml version="1.0" encoding="UTF-8"?>
<svg id="containers" xmlns="http://www.w3.org/2000/svg" viewBox="0 0 1552.15 2232.71">
  <defs>
    <style>
      .cls-1 {
        stroke-width: 2.83px;
      }

      .cls-1, .cls-2, .cls-3, .cls-4, .cls-5, .cls-6, .cls-7, .cls-8, .cls-9, .cls-10, .cls-11 {
        stroke-miterlimit: 10;
      }

      .cls-1, .cls-2, .cls-4, .cls-7, .cls-8, .cls-10 {
        fill: none;
      }

      .cls-1, .cls-3, .cls-5, .cls-6, .cls-11 {
        stroke: #1d1d1b;
      }

      .cls-2 {
        stroke-dasharray: 0 0 4.9 4.9;
      }

      .cls-2, .cls-4, .cls-7, .cls-8, .cls-10 {
        stroke: #fff;
      }

      .cls-3 {
        fill: #f9b233;
      }

      .cls-5 {
        fill: #2d2e83;
      }

      .cls-6 {
        fill: #95c11f;
      }

      .cls-7 {
        stroke-dasharray: 0 0 6.33 6.33;
      }

      .cls-8 {
        stroke-dasharray: 0 5.67;
      }

      .cls-9 {
        fill: #f6f6f6;
        stroke: #f6f6f6;
      }

      .cls-10 {
        stroke-width: .71px;
      }

      .cls-11 {
        fill: #009fe3;
      }
    </style>
  </defs>
  <g>
    <polygon class="cls-1" points="1016.91 2198.95 991.31 2198.95 978.51 2176.78 991.31 2154.61 978.51 2132.44 952.91 2132.44 940.11 2110.27 914.51 2110.27 901.71 2132.44 876.11 2132.44 863.31 2110.27 876.11 2088.1 863.31 2065.93 876.11 2043.76 901.71 2043.76 914.51 2021.59 940.11 2021.59 952.91 1999.42 978.51 1999.42 991.31 1977.25 1016.91 1977.25 1029.71 1999.42 1055.31 1999.42 1068.11 2021.59 1055.31 2043.76 1068.11 2065.93 1093.71 2065.93 1106.51 2088.1 1093.71 2110.27 1068.11 2110.27 1055.31 2132.44 1068.11 2154.61 1055.31 2176.78 1029.71 2176.78 1016.91 2198.95"/>
    <polygon class="cls-3" points="978.51 2132.44 952.91 2132.44 940.11 2110.27 952.91 2088.1 978.51 2088.1 991.31 2110.27 978.51 2132.44"/>
    <polygon class="cls-11" points="1055.31 2132.44 1029.71 2132.44 1016.91 2110.27 1029.71 2088.1 1055.31 2088.1 1068.11 2110.27 1055.31 2132.44"/>
    <polygon class="cls-3" points="1016.91 2065.93 991.31 2065.93 978.51 2088.1 991.31 2110.27 1016.91 2110.27 1029.71 2088.1 1016.91 2065.93"/>
    <polygon class="cls-11" points="1016.91 2110.27 991.31 2110.27 978.51 2132.44 991.31 2154.61 1016.91 2154.61 1029.71 2132.44 1016.91 2110.27"/>
    <polygon class="cls-6" points="1016.91 2021.59 991.31 2021.59 978.51 2043.76 991.31 2065.93 1016.91 2065.93 1029.71 2043.76 1016.91 2021.59"/>
    <polygon class="cls-11" points="1055.31 2043.76 1029.71 2043.76 1016.91 2065.93 1029.71 2088.1 1055.31 2088.1 1068.11 2065.93 1055.31 2043.76"/>
    <polygon class="cls-5" points="978.51 2043.76 952.91 2043.76 940.11 2065.93 952.91 2088.1 978.51 2088.1 991.31 2065.93 978.51 2043.76"/>
    <polygon class="cls-3" points="940.11 2065.93 914.51 2065.93 901.71 2088.1 914.51 2110.27 940.11 2110.27 952.91 2088.1 940.11 2065.93"/>
    <polygon class="cls-11" points="1093.71 2065.93 1068.11 2065.93 1055.31 2088.1 1068.11 2110.27 1093.71 2110.27 1106.51 2088.1 1093.71 2065.93"/>
    <polygon class="cls-6" points="1055.31 1999.42 1029.71 1999.42 1016.91 2021.59 1029.71 2043.76 1055.31 2043.76 1068.11 2021.59 1055.31 1999.42"/>
    <polygon class="cls-6" points="978.51 1999.42 952.91 1999.42 940.11 2021.59 952.91 2043.76 978.51 2043.76 991.31 2021.59 978.51 1999.42"/>
    <polygon class="cls-6" points="940.11 2021.59 914.51 2021.59 901.71 2043.76 914.51 2065.93 940.11 2065.93 952.91 2043.76 940.11 2021.59"/>
    <polygon class="cls-6" points="901.71 2043.76 876.11 2043.76 863.31 2065.93 876.11 2088.1 901.71 2088.1 914.51 2065.93 901.71 2043.76"/>
    <polygon class="cls-6" points="901.71 2088.1 876.11 2088.1 863.31 2110.27 876.11 2132.44 901.71 2132.44 914.51 2110.27 901.71 2088.1"/>
    <polygon class="cls-6" points="1016.91 1977.25 991.31 1977.25 978.51 1999.42 991.31 2021.59 1016.91 2021.59 1029.71 1999.42 1016.91 1977.25"/>
    <polygon class="cls-5" points="1055.31 2132.44 1029.71 2132.44 1016.91 2154.61 1029.71 2176.78 1055.31 2176.78 1068.11 2154.61 1055.31 2132.44"/>
    <polygon class="cls-5" points="1016.91 2154.61 991.31 2154.61 978.51 2176.78 991.31 2198.95 1016.91 2198.95 1029.71 2176.78 1016.91 2154.61"/>
  </g>
  <polygon class="cls-9" points="201.58 130.4 151.58 130.4 126.58 173.71 151.58 217.01 201.58 217.01 226.58 173.71 201.58 130.4"/>
  <g>
    <polygon class="cls-9" points="1309.08 1061.62 1277.08 1061.62 1261.08 1089.33 1277.08 1117.05 1309.08 1117.05 1325.08 1089.33 1309.08 1061.62"/>
    <polygon class="cls-4" points="1357.08 1200.18 1325.08 1200.18 1309.08 1172.47 1325.08 1144.76 1357.08 1144.76 1373.08 1172.47 1357.08 1200.18"/>
    <polygon class="cls-4" points="1453.08 1200.18 1421.08 1200.18 1405.08 1172.47 1421.08 1144.76 1453.08 1144.76 1469.08 1172.47 1453.08 1200.18"/>
    <polygon class="cls-4" points="1405.08 1117.05 1373.08 1117.05 1357.08 1144.76 1373.08 1172.47 1405.08 1172.47 1421.08 1144.76 1405.08 1117.05"/>
    <polygon class="cls-4" points="1405.08 1172.47 1373.08 1172.47 1357.08 1200.18 1373.08 1227.9 1405.08 1227.9 1421.08 1200.18 1405.08 1172.47"/>
    <polygon class="cls-4" points="1405.08 1061.62 1373.08 1061.62 1357.08 1089.33 1373.08 1117.05 1405.08 1117.05 1421.08 1089.33 1405.08 1061.62"/>
    <polygon class="cls-4" points="1453.08 1089.33 1421.08 1089.33 1405.08 1117.05 1421.08 1144.76 1453.08 1144.76 1469.08 1117.05 1453.08 1089.33"/>
    <polygon class="cls-4" points="1357.08 1089.33 1325.08 1089.33 1309.08 1117.05 1325.08 1144.76 1357.08 1144.76 1373.08 1117.05 1357.08 1089.33"/>
    <polygon class="cls-4" points="1309.08 1117.05 1277.08 1117.05 1261.08 1144.76 1277.08 1172.47 1309.08 1172.47 1325.08 1144.76 1309.08 1117.05"/>
    <polygon class="cls-4" points="1501.08 1117.05 1469.08 1117.05 1453.08 1144.76 1469.08 1172.47 1501.08 1172.47 1517.08 1144.76 1501.08 1117.05"/>
    <polygon class="cls-4" points="1453.08 1033.91 1421.08 1033.91 1405.08 1061.62 1421.08 1089.33 1453.08 1089.33 1469.08 1061.62 1453.08 1033.91"/>
    <polygon class="cls-4" points="1357.08 1033.91 1325.08 1033.91 1309.08 1061.62 1325.08 1089.33 1357.08 1089.33 1373.08 1061.62 1357.08 1033.91"/>
  </g>
  <g>
    <line class="cls-10" x1="633.8" y1="152.34" x2="677.69" y2="108.46"/>
    <line class="cls-10" x1="633.8" y1="108.46" x2="677.69" y2="152.34"/>
    <line class="cls-10" x1="633.8" y1="238.95" x2="677.69" y2="195.07"/>
    <line class="cls-10" x1="633.8" y1="195.07" x2="677.69" y2="238.95"/>
    <line class="cls-10" x1="483.8" y1="152.34" x2="527.69" y2="108.46"/>
    <line class="cls-10" x1="483.8" y1="108.46" x2="527.69" y2="152.34"/>
    <line class="cls-10" x1="483.8" y1="238.95" x2="527.69" y2="195.07"/>
    <line class="cls-10" x1="483.8" y1="195.07" x2="527.69" y2="238.95"/>
    <line class="cls-10" x1="558.8" y1="282.25" x2="602.69" y2="238.37"/>
    <line class="cls-10" x1="558.8" y1="238.37" x2="602.69" y2="282.25"/>
    <polygon class="cls-9" points="605.74 43.8 555.74 43.8 530.74 87.1 555.74 130.4 605.74 130.4 630.74 87.1 605.74 43.8"/>
    <polygon class="cls-4" points="605.74 130.4 555.74 130.4 530.74 173.71 555.74 217.01 605.74 217.01 630.74 173.71 605.74 130.4"/>
    <g>
      <polyline class="cls-4" points="532.16 89.56 530.74 87.1 527.91 87.1"/>
      <line class="cls-7" x1="521.58" y1="87.1" x2="486.75" y2="87.1"/>
      <polyline class="cls-4" points="483.58 87.1 480.74 87.1 479.33 89.56"/>
      <line class="cls-7" x1="476.16" y1="95.04" x2="458.74" y2="125.21"/>
      <polyline class="cls-4" points="457.16 127.95 455.74 130.4 457.16 132.86"/>
      <line class="cls-7" x1="460.33" y1="138.34" x2="477.74" y2="168.51"/>
      <polyline class="cls-4" points="479.33 171.25 480.74 173.71 483.58 173.71"/>
      <line class="cls-7" x1="489.91" y1="173.71" x2="524.74" y2="173.71"/>
      <polyline class="cls-4" points="527.91 173.71 530.74 173.71 532.16 171.25"/>
      <line class="cls-7" x1="535.33" y1="165.77" x2="552.74" y2="135.6"/>
      <polyline class="cls-4" points="554.33 132.86 555.74 130.4 554.33 127.95"/>
      <line class="cls-7" x1="551.16" y1="122.46" x2="533.74" y2="92.3"/>
    </g>
    <g>
      <polyline class="cls-4" points="682.16 89.56 680.74 87.1 677.91 87.1"/>
      <line class="cls-7" x1="671.58" y1="87.1" x2="636.75" y2="87.1"/>
      <polyline class="cls-4" points="633.58 87.1 630.74 87.1 629.33 89.56"/>
      <line class="cls-7" x1="626.16" y1="95.04" x2="608.74" y2="125.21"/>
      <polyline class="cls-4" points="607.16 127.95 605.74 130.4 607.16 132.86"/>
      <line class="cls-7" x1="610.33" y1="138.34" x2="627.74" y2="168.51"/>
      <polyline class="cls-4" points="629.33 171.25 630.74 173.71 633.58 173.71"/>
      <line class="cls-7" x1="639.91" y1="173.71" x2="674.74" y2="173.71"/>
      <polyline class="cls-4" points="677.91 173.71 680.74 173.71 682.16 171.25"/>
      <line class="cls-7" x1="685.33" y1="165.77" x2="702.74" y2="135.6"/>
      <polyline class="cls-4" points="704.33 132.86 705.74 130.4 704.33 127.95"/>
      <line class="cls-7" x1="701.16" y1="122.46" x2="683.74" y2="92.3"/>
    </g>
    <g>
      <polyline class="cls-4" points="532.16 176.16 530.74 173.71 527.91 173.71"/>
      <line class="cls-7" x1="521.58" y1="173.71" x2="486.75" y2="173.71"/>
      <polyline class="cls-4" points="483.58 173.71 480.74 173.71 479.33 176.16"/>
      <line class="cls-7" x1="476.16" y1="181.64" x2="458.74" y2="211.81"/>
      <polyline class="cls-4" points="457.16 214.55 455.74 217.01 457.16 219.46"/>
      <line class="cls-7" x1="460.33" y1="224.95" x2="477.74" y2="255.11"/>
      <polyline class="cls-4" points="479.33 257.85 480.74 260.31 483.58 260.31"/>
      <line class="cls-7" x1="489.91" y1="260.31" x2="524.74" y2="260.31"/>
      <polyline class="cls-4" points="527.91 260.31 530.74 260.31 532.16 257.85"/>
      <line class="cls-7" x1="535.33" y1="252.37" x2="552.74" y2="222.2"/>
      <polyline class="cls-4" points="554.33 219.46 555.74 217.01 554.33 214.55"/>
      <line class="cls-7" x1="551.16" y1="209.07" x2="533.74" y2="178.9"/>
    </g>
    <g>
      <polyline class="cls-4" points="607.16 219.46 605.74 217.01 602.91 217.01"/>
      <line class="cls-7" x1="596.58" y1="217.01" x2="561.75" y2="217.01"/>
      <polyline class="cls-4" points="558.58 217.01 555.74 217.01 554.33 219.46"/>
      <line class="cls-7" x1="551.16" y1="224.95" x2="533.74" y2="255.11"/>
      <polyline class="cls-4" points="532.16 257.85 530.74 260.31 532.16 262.76"/>
      <line class="cls-7" x1="535.33" y1="268.25" x2="552.74" y2="298.41"/>
      <polyline class="cls-4" points="554.33 301.15 555.74 303.61 558.58 303.61"/>
      <line class="cls-7" x1="564.91" y1="303.61" x2="599.74" y2="303.61"/>
      <polyline class="cls-4" points="602.91 303.61 605.74 303.61 607.16 301.15"/>
      <line class="cls-7" x1="610.33" y1="295.67" x2="627.74" y2="265.5"/>
      <polyline class="cls-4" points="629.33 262.76 630.74 260.31 629.33 257.85"/>
      <line class="cls-7" x1="626.16" y1="252.37" x2="608.74" y2="222.2"/>
    </g>
    <g>
      <polyline class="cls-4" points="682.16 176.16 680.74 173.71 677.91 173.71"/>
      <line class="cls-7" x1="671.58" y1="173.71" x2="636.75" y2="173.71"/>
      <polyline class="cls-4" points="633.58 173.71 630.74 173.71 629.33 176.16"/>
      <line class="cls-7" x1="626.16" y1="181.64" x2="608.74" y2="211.81"/>
      <polyline class="cls-4" points="607.16 214.55 605.74 217.01 607.16 219.46"/>
      <line class="cls-7" x1="610.33" y1="224.95" x2="627.74" y2="255.11"/>
      <polyline class="cls-4" points="629.33 257.85 630.74 260.31 633.58 260.31"/>
      <line class="cls-7" x1="639.91" y1="260.31" x2="674.74" y2="260.31"/>
      <polyline class="cls-4" points="677.91 260.31 680.74 260.31 682.16 257.85"/>
      <line class="cls-7" x1="685.33" y1="252.37" x2="702.74" y2="222.2"/>
      <polyline class="cls-4" points="704.33 219.46 705.74 217.01 704.33 214.55"/>
      <line class="cls-7" x1="701.16" y1="209.07" x2="683.74" y2="178.9"/>
    </g>
  </g>
  <g>
    <polygon class="cls-9" points="540.74 721.59 500.74 721.59 480.74 686.94 500.74 652.3 540.74 652.3 560.74 686.94 540.74 721.59"/>
    <polygon class="cls-4" points="660.74 721.59 620.74 721.59 600.74 686.94 620.74 652.3 660.74 652.3 680.74 686.94 660.74 721.59"/>
    <polygon class="cls-4" points="600.74 617.66 560.74 617.66 540.74 652.3 560.74 686.94 600.74 686.94 620.74 652.3 600.74 617.66"/>
    <polygon class="cls-4" points="600.74 548.38 560.74 548.38 540.74 583.02 560.74 617.66 600.74 617.66 620.74 583.02 600.74 548.38"/>
    <polygon class="cls-4" points="660.74 583.02 620.74 583.02 600.74 617.66 620.74 652.3 660.74 652.3 680.74 617.66 660.74 583.02"/>
    <polygon class="cls-4" points="540.74 583.02 500.74 583.02 480.74 617.66 500.74 652.3 540.74 652.3 560.74 617.66 540.74 583.02"/>
    <g>
      <polyline class="cls-4" points="602.16 753.77 600.74 756.23 597.91 756.23"/>
      <line class="cls-2" x1="593" y1="756.23" x2="566.03" y2="756.23"/>
      <polyline class="cls-4" points="563.58 756.23 560.74 756.23 559.33 753.77"/>
      <line class="cls-2" x1="556.87" y1="749.52" x2="543.39" y2="726.16"/>
      <polyline class="cls-4" points="542.16 724.04 540.74 721.59 542.16 719.13"/>
      <line class="cls-2" x1="544.61" y1="714.88" x2="558.1" y2="691.52"/>
      <polyline class="cls-4" points="559.33 689.4 560.74 686.94 563.58 686.94"/>
      <line class="cls-2" x1="568.48" y1="686.94" x2="595.46" y2="686.94"/>
      <polyline class="cls-4" points="597.91 686.94 600.74 686.94 602.16 689.4"/>
      <line class="cls-2" x1="604.61" y1="693.65" x2="618.1" y2="717.01"/>
      <polyline class="cls-4" points="619.33 719.13 620.74 721.59 619.33 724.04"/>
      <line class="cls-2" x1="616.87" y1="728.29" x2="603.39" y2="751.65"/>
    </g>
  </g>
  <g>
    <line class="cls-10" x1="1329.64" y1="65.74" x2="1373.52" y2="21.86"/>
    <line class="cls-10" x1="1329.64" y1="21.86" x2="1373.52" y2="65.74"/>
    <line class="cls-10" x1="1254.64" y1="109.04" x2="1298.52" y2="65.16"/>
    <line class="cls-10" x1="1254.64" y1="65.16" x2="1298.52" y2="109.04"/>
    <line class="cls-10" x1="1479.64" y1="152.34" x2="1523.52" y2="108.46"/>
    <line class="cls-10" x1="1479.64" y1="108.46" x2="1523.52" y2="152.34"/>
    <line class="cls-10" x1="1479.64" y1="238.95" x2="1523.52" y2="195.07"/>
    <line class="cls-10" x1="1479.64" y1="195.07" x2="1523.52" y2="238.95"/>
    <line class="cls-10" x1="1329.64" y1="325.55" x2="1373.52" y2="281.67"/>
    <line class="cls-10" x1="1329.64" y1="281.67" x2="1373.52" y2="325.55"/>
    <line class="cls-10" x1="1254.64" y1="282.25" x2="1298.52" y2="238.37"/>
    <line class="cls-10" x1="1254.64" y1="238.37" x2="1298.52" y2="282.25"/>
    <polygon class="cls-9" points="1301.58 130.4 1251.58 130.4 1226.58 173.71 1251.58 217.01 1301.58 217.01 1326.58 173.71 1301.58 130.4"/>
    <polygon class="cls-4" points="1376.58 173.71 1326.58 173.71 1301.58 217.01 1326.58 260.31 1376.58 260.31 1401.58 217.01 1376.58 173.71"/>
    <polygon class="cls-4" points="1376.58 87.1 1326.58 87.1 1301.58 130.4 1326.58 173.71 1376.58 173.71 1401.58 130.4 1376.58 87.1"/>
    <polygon class="cls-4" points="1451.58 130.4 1401.58 130.4 1376.58 173.71 1401.58 217.01 1451.58 217.01 1476.58 173.71 1451.58 130.4"/>
    <g>
      <polyline class="cls-4" points="1377.99 84.65 1376.58 87.1 1373.74 87.1"/>
      <line class="cls-7" x1="1367.41" y1="87.1" x2="1332.58" y2="87.1"/>
      <polyline class="cls-4" points="1329.41 87.1 1326.58 87.1 1325.16 84.65"/>
      <line class="cls-7" x1="1321.99" y1="79.16" x2="1304.58" y2="49"/>
      <polyline class="cls-4" points="1302.99 46.26 1301.58 43.8 1302.99 41.35"/>
      <line class="cls-7" x1="1306.16" y1="35.86" x2="1323.58" y2="5.7"/>
      <polyline class="cls-4" points="1325.16 2.95 1326.58 .5 1329.41 .5"/>
      <line class="cls-7" x1="1335.74" y1=".5" x2="1370.58" y2=".5"/>
      <polyline class="cls-4" points="1373.74 .5 1376.58 .5 1377.99 2.95"/>
      <line class="cls-7" x1="1381.16" y1="8.44" x2="1398.58" y2="38.6"/>
      <polyline class="cls-4" points="1400.16 41.35 1401.58 43.8 1400.16 46.26"/>
      <line class="cls-7" x1="1396.99" y1="51.74" x2="1379.58" y2="81.91"/>
    </g>
    <g>
      <polyline class="cls-4" points="1302.99 127.95 1301.58 130.4 1298.74 130.4"/>
      <line class="cls-7" x1="1292.41" y1="130.4" x2="1257.58" y2="130.4"/>
      <polyline class="cls-4" points="1254.41 130.4 1251.58 130.4 1250.16 127.95"/>
      <line class="cls-7" x1="1246.99" y1="122.46" x2="1229.58" y2="92.3"/>
      <polyline class="cls-4" points="1227.99 89.56 1226.58 87.1 1227.99 84.65"/>
      <line class="cls-7" x1="1231.16" y1="79.16" x2="1248.58" y2="49"/>
      <polyline class="cls-4" points="1250.16 46.26 1251.58 43.8 1254.41 43.8"/>
      <line class="cls-7" x1="1260.74" y1="43.8" x2="1295.58" y2="43.8"/>
      <polyline class="cls-4" points="1298.74 43.8 1301.58 43.8 1302.99 46.26"/>
      <line class="cls-7" x1="1306.16" y1="51.74" x2="1323.58" y2="81.91"/>
      <polyline class="cls-4" points="1325.16 84.65 1326.58 87.1 1325.16 89.56"/>
      <line class="cls-7" x1="1321.99" y1="95.04" x2="1304.58" y2="125.21"/>
    </g>
    <g>
      <polyline class="cls-4" points="1452.99 127.95 1451.58 130.4 1448.74 130.4"/>
      <line class="cls-7" x1="1442.41" y1="130.4" x2="1407.58" y2="130.4"/>
      <polyline class="cls-4" points="1404.41 130.4 1401.58 130.4 1400.16 127.95"/>
      <line class="cls-7" x1="1396.99" y1="122.46" x2="1379.58" y2="92.3"/>
      <polyline class="cls-4" points="1377.99 89.56 1376.58 87.1 1377.99 84.65"/>
      <line class="cls-7" x1="1381.16" y1="79.16" x2="1398.58" y2="49"/>
      <polyline class="cls-4" points="1400.16 46.26 1401.58 43.8 1404.41 43.8"/>
      <line class="cls-7" x1="1410.74" y1="43.8" x2="1445.58" y2="43.8"/>
      <polyline class="cls-4" points="1448.74 43.8 1451.58 43.8 1452.99 46.26"/>
      <line class="cls-7" x1="1456.16" y1="51.74" x2="1473.58" y2="81.91"/>
      <polyline class="cls-4" points="1475.16 84.65 1476.58 87.1 1475.16 89.56"/>
      <line class="cls-7" x1="1471.99" y1="95.04" x2="1454.58" y2="125.21"/>
    </g>
    <g>
      <polyline class="cls-4" points="1527.99 171.25 1526.58 173.71 1523.74 173.71"/>
      <line class="cls-7" x1="1517.41" y1="173.71" x2="1482.58" y2="173.71"/>
      <polyline class="cls-4" points="1479.41 173.71 1476.58 173.71 1475.16 171.25"/>
      <line class="cls-7" x1="1471.99" y1="165.77" x2="1454.58" y2="135.6"/>
      <polyline class="cls-4" points="1452.99 132.86 1451.58 130.4 1452.99 127.95"/>
      <line class="cls-7" x1="1456.16" y1="122.46" x2="1473.58" y2="92.3"/>
      <polyline class="cls-4" points="1475.16 89.56 1476.58 87.1 1479.41 87.1"/>
      <line class="cls-7" x1="1485.74" y1="87.1" x2="1520.58" y2="87.1"/>
      <polyline class="cls-4" points="1523.74 87.1 1526.58 87.1 1527.99 89.56"/>
      <line class="cls-7" x1="1531.16" y1="95.04" x2="1548.58" y2="125.21"/>
      <polyline class="cls-4" points="1550.16 127.95 1551.58 130.4 1550.16 132.86"/>
      <line class="cls-7" x1="1546.99" y1="138.34" x2="1529.58" y2="168.51"/>
    </g>
    <g>
      <polyline class="cls-4" points="1302.99 301.15 1301.58 303.61 1298.74 303.61"/>
      <line class="cls-7" x1="1292.41" y1="303.61" x2="1257.58" y2="303.61"/>
      <polyline class="cls-4" points="1254.41 303.61 1251.58 303.61 1250.16 301.15"/>
      <line class="cls-7" x1="1246.99" y1="295.67" x2="1229.58" y2="265.5"/>
      <polyline class="cls-4" points="1227.99 262.76 1226.58 260.31 1227.99 257.85"/>
      <line class="cls-7" x1="1231.16" y1="252.37" x2="1248.58" y2="222.2"/>
      <polyline class="cls-4" points="1250.16 219.46 1251.58 217.01 1254.41 217.01"/>
      <line class="cls-7" x1="1260.74" y1="217.01" x2="1295.58" y2="217.01"/>
      <polyline class="cls-4" points="1298.74 217.01 1301.58 217.01 1302.99 219.46"/>
      <line class="cls-7" x1="1306.16" y1="224.95" x2="1323.58" y2="255.11"/>
      <polyline class="cls-4" points="1325.16 257.85 1326.58 260.31 1325.16 262.76"/>
      <line class="cls-7" x1="1321.99" y1="268.25" x2="1304.58" y2="298.41"/>
    </g>
    <g>
      <polyline class="cls-4" points="1377.99 344.46 1376.58 346.91 1373.74 346.91"/>
      <line class="cls-7" x1="1367.41" y1="346.91" x2="1332.58" y2="346.91"/>
      <polyline class="cls-4" points="1329.41 346.91 1326.58 346.91 1325.16 344.46"/>
      <line class="cls-7" x1="1321.99" y1="338.97" x2="1304.58" y2="308.81"/>
      <polyline class="cls-4" points="1302.99 306.06 1301.58 303.61 1302.99 301.15"/>
      <line class="cls-7" x1="1306.16" y1="295.67" x2="1323.58" y2="265.5"/>
      <polyline class="cls-4" points="1325.16 262.76 1326.58 260.31 1329.41 260.31"/>
      <line class="cls-7" x1="1335.74" y1="260.31" x2="1370.58" y2="260.31"/>
      <polyline class="cls-4" points="1373.74 260.31 1376.58 260.31 1377.99 262.76"/>
      <line class="cls-7" x1="1381.16" y1="268.25" x2="1398.58" y2="298.41"/>
      <polyline class="cls-4" points="1400.16 301.15 1401.58 303.61 1400.16 306.06"/>
      <line class="cls-7" x1="1396.99" y1="311.55" x2="1379.58" y2="341.71"/>
    </g>
    <g>
      <polyline class="cls-4" points="1452.99 301.15 1451.58 303.61 1448.74 303.61"/>
      <line class="cls-7" x1="1442.41" y1="303.61" x2="1407.58" y2="303.61"/>
      <polyline class="cls-4" points="1404.41 303.61 1401.58 303.61 1400.16 301.15"/>
      <line class="cls-7" x1="1396.99" y1="295.67" x2="1379.58" y2="265.5"/>
      <polyline class="cls-4" points="1377.99 262.76 1376.58 260.31 1377.99 257.85"/>
      <line class="cls-7" x1="1381.16" y1="252.37" x2="1398.58" y2="222.2"/>
      <polyline class="cls-4" points="1400.16 219.46 1401.58 217.01 1404.41 217.01"/>
      <line class="cls-7" x1="1410.74" y1="217.01" x2="1445.58" y2="217.01"/>
      <polyline class="cls-4" points="1448.74 217.01 1451.58 217.01 1452.99 219.46"/>
      <line class="cls-7" x1="1456.16" y1="224.95" x2="1473.58" y2="255.11"/>
      <polyline class="cls-4" points="1475.16 257.85 1476.58 260.31 1475.16 262.76"/>
      <line class="cls-7" x1="1471.99" y1="268.25" x2="1454.58" y2="298.41"/>
    </g>
    <g>
      <polyline class="cls-4" points="1527.99 257.85 1526.58 260.31 1523.74 260.31"/>
      <line class="cls-7" x1="1517.41" y1="260.31" x2="1482.58" y2="260.31"/>
      <polyline class="cls-4" points="1479.41 260.31 1476.58 260.31 1475.16 257.85"/>
      <line class="cls-7" x1="1471.99" y1="252.37" x2="1454.58" y2="222.2"/>
      <polyline class="cls-4" points="1452.99 219.46 1451.58 217.01 1452.99 214.55"/>
      <line class="cls-7" x1="1456.16" y1="209.07" x2="1473.58" y2="178.9"/>
      <polyline class="cls-4" points="1475.16 176.16 1476.58 173.71 1479.41 173.71"/>
      <line class="cls-7" x1="1485.74" y1="173.71" x2="1520.58" y2="173.71"/>
      <polyline class="cls-4" points="1523.74 173.71 1526.58 173.71 1527.99 176.16"/>
      <line class="cls-7" x1="1531.16" y1="181.64" x2="1548.58" y2="211.81"/>
      <polyline class="cls-4" points="1550.16 214.55 1551.58 217.01 1550.16 219.46"/>
      <line class="cls-7" x1="1546.99" y1="224.95" x2="1529.58" y2="255.11"/>
    </g>
  </g>
  <g>
    <line class="cls-10" x1="39.02" y1="704.5" x2="74.13" y2="669.39"/>
    <line class="cls-10" x1="39.02" y1="669.39" x2="74.13" y2="704.5"/>
    <line class="cls-10" x1="279.02" y1="704.5" x2="314.13" y2="669.39"/>
    <line class="cls-10" x1="279.02" y1="669.39" x2="314.13" y2="704.5"/>
    <line class="cls-10" x1="159.02" y1="773.78" x2="194.13" y2="738.67"/>
    <line class="cls-10" x1="159.02" y1="738.67" x2="194.13" y2="773.78"/>
    <line class="cls-10" x1="159.02" y1="563.38" x2="194.13" y2="528.27"/>
    <line class="cls-10" x1="159.02" y1="528.27" x2="194.13" y2="563.38"/>
    <line class="cls-10" x1="39.02" y1="635.36" x2="74.13" y2="600.26"/>
    <line class="cls-10" x1="39.02" y1="600.26" x2="74.13" y2="635.36"/>
    <line class="cls-10" x1="279.02" y1="635.36" x2="314.13" y2="600.26"/>
    <line class="cls-10" x1="279.02" y1="600.26" x2="314.13" y2="635.36"/>
    <polygon class="cls-9" points="256.93 686.95 216.93 686.95 196.93 721.59 216.93 756.23 256.93 756.23 276.93 721.59 256.93 686.95"/>
    <polygon class="cls-4" points="196.58 652.3 156.58 652.3 136.58 686.95 156.58 721.59 196.58 721.59 216.58 686.95 196.58 652.3"/>
    <polygon class="cls-4" points="196.58 583.02 156.58 583.02 136.58 617.66 156.58 652.3 196.58 652.3 216.58 617.66 196.58 583.02"/>
    <polygon class="cls-4" points="256.58 617.66 216.58 617.66 196.58 652.3 216.58 686.95 256.58 686.95 276.58 652.3 256.58 617.66"/>
    <polygon class="cls-4" points="136.58 617.66 96.58 617.66 76.58 652.3 96.58 686.95 136.58 686.95 156.58 652.3 136.58 617.66"/>
    <polygon class="cls-8" points="136.58 548.38 96.58 548.38 76.58 583.02 96.58 617.66 136.58 617.66 156.58 583.02 136.58 548.38"/>
    <polygon class="cls-8" points="256.58 548.38 216.58 548.38 196.58 583.02 216.58 617.66 256.58 617.66 276.58 583.02 256.58 548.38"/>
    <polygon class="cls-8" points="316.58 583.17 276.58 583.17 256.58 617.81 276.58 652.45 316.58 652.45 336.58 617.81 316.58 583.17"/>
    <polygon class="cls-8" points="136.58 686.8 96.58 686.8 76.58 721.44 96.58 756.08 136.58 756.08 156.58 721.44 136.58 686.8"/>
    <polygon class="cls-8" points="196.58 721.59 156.58 721.59 136.58 756.23 156.58 790.87 196.58 790.87 216.58 756.23 196.58 721.59"/>
    <polygon class="cls-8" points="196.22 513.74 156.22 513.74 136.22 548.38 156.22 583.02 196.22 583.02 216.22 548.38 196.22 513.74"/>
    <polygon class="cls-8" points="316.58 652.3 276.58 652.3 256.58 686.95 276.58 721.59 316.58 721.59 336.58 686.95 316.58 652.3"/>
    <polygon class="cls-8" points="76.58 583.17 36.58 583.17 16.58 617.81 36.58 652.45 76.58 652.45 96.58 617.81 76.58 583.17"/>
    <polygon class="cls-8" points="76.58 652.3 36.58 652.3 16.58 686.95 36.58 721.59 76.58 721.59 96.58 686.95 76.58 652.3"/>
  </g>
  <g>
    <line class="cls-10" x1="1491.52" y1="739.14" x2="1526.63" y2="704.03"/>
    <line class="cls-10" x1="1491.52" y1="704.03" x2="1526.63" y2="739.14"/>
    <line class="cls-10" x1="1491.52" y1="600.57" x2="1526.63" y2="565.47"/>
    <line class="cls-10" x1="1491.52" y1="565.47" x2="1526.63" y2="600.57"/>
    <line class="cls-10" x1="1286.63" y1="739.14" x2="1251.52" y2="704.03"/>
    <line class="cls-10" x1="1286.63" y1="704.03" x2="1251.52" y2="739.14"/>
    <line class="cls-10" x1="1286.63" y1="600.57" x2="1251.52" y2="565.47"/>
    <line class="cls-10" x1="1286.63" y1="565.47" x2="1251.52" y2="600.57"/>
    <line class="cls-10" x1="1371.52" y1="808.42" x2="1406.63" y2="773.31"/>
    <line class="cls-10" x1="1371.52" y1="773.31" x2="1406.63" y2="808.42"/>
    <line class="cls-10" x1="1371.52" y1="496.19" x2="1406.63" y2="531.29"/>
    <line class="cls-10" x1="1371.52" y1="531.29" x2="1406.63" y2="496.19"/>
    <polygon class="cls-9" points="1289.08 617.66 1249.08 617.66 1229.08 652.3 1249.08 686.94 1289.08 686.94 1309.08 652.3 1289.08 617.66"/>
    <polygon class="cls-4" points="1349.08 721.59 1309.08 721.59 1289.08 686.94 1309.08 652.3 1349.08 652.3 1369.08 686.94 1349.08 721.59"/>
    <polygon class="cls-4" points="1469.08 721.59 1429.08 721.59 1409.08 686.94 1429.08 652.3 1469.08 652.3 1489.08 686.94 1469.08 721.59"/>
    <polygon class="cls-4" points="1409.08 617.66 1369.08 617.66 1349.08 652.3 1369.08 686.94 1409.08 686.94 1429.08 652.3 1409.08 617.66"/>
    <polygon class="cls-4" points="1409.08 686.94 1369.08 686.94 1349.08 721.59 1369.08 756.23 1409.08 756.23 1429.08 721.59 1409.08 686.94"/>
    <polygon class="cls-4" points="1409.08 548.38 1369.08 548.38 1349.08 583.02 1369.08 617.66 1409.08 617.66 1429.08 583.02 1409.08 548.38"/>
    <polygon class="cls-4" points="1469.08 583.02 1429.08 583.02 1409.08 617.66 1429.08 652.3 1469.08 652.3 1489.08 617.66 1469.08 583.02"/>
    <polygon class="cls-4" points="1349.08 583.02 1309.08 583.02 1289.08 617.66 1309.08 652.3 1349.08 652.3 1369.08 617.66 1349.08 583.02"/>
    <polygon class="cls-8" points="1469.08 721.59 1429.08 721.59 1409.08 756.23 1429.08 790.87 1469.08 790.87 1489.08 756.23 1469.08 721.59"/>
    <polygon class="cls-8" points="1409.08 756.23 1369.08 756.23 1349.08 790.87 1369.08 825.51 1409.08 825.51 1429.08 790.87 1409.08 756.23"/>
    <polygon class="cls-8" points="1349.08 513.74 1309.08 513.74 1289.08 548.38 1309.08 583.02 1349.08 583.02 1369.08 548.38 1349.08 513.74"/>
    <polygon class="cls-8" points="1289.08 548.38 1249.08 548.38 1229.08 583.02 1249.08 617.66 1289.08 617.66 1309.08 583.02 1289.08 548.38"/>
    <polygon class="cls-8" points="1289.08 686.94 1249.08 686.94 1229.08 721.59 1249.08 756.23 1289.08 756.23 1309.08 721.59 1289.08 686.94"/>
    <polygon class="cls-8" points="1349.08 721.59 1309.08 721.59 1289.08 756.23 1309.08 790.87 1349.08 790.87 1369.08 756.23 1349.08 721.59"/>
    <polygon class="cls-8" points="1529.08 548.38 1489.08 548.38 1469.08 583.02 1489.08 617.66 1529.08 617.66 1549.08 583.02 1529.08 548.38"/>
    <polygon class="cls-8" points="1529.08 617.66 1489.08 617.66 1469.08 652.3 1489.08 686.94 1529.08 686.94 1549.08 652.3 1529.08 617.66"/>
    <polygon class="cls-8" points="1529.08 686.94 1489.08 686.94 1469.08 721.59 1489.08 756.23 1529.08 756.23 1549.08 721.59 1529.08 686.94"/>
    <polygon class="cls-8" points="1469.08 513.74 1429.08 513.74 1409.08 548.38 1429.08 583.02 1469.08 583.02 1489.08 548.38 1469.08 513.74"/>
    <polygon class="cls-8" points="1409.08 479.1 1369.08 479.1 1349.08 513.74 1369.08 548.38 1409.08 548.38 1429.08 513.74 1409.08 479.1"/>
  </g>
  <g>
    <line class="cls-10" x1="282.54" y1="1200.37" x2="310.62" y2="1172.29"/>
    <line class="cls-10" x1="282.54" y1="1172.29" x2="310.62" y2="1200.37"/>
    <line class="cls-10" x1="282.54" y1="1089.52" x2="310.62" y2="1061.43"/>
    <line class="cls-10" x1="282.54" y1="1061.43" x2="310.62" y2="1089.52"/>
    <line class="cls-10" x1="70.62" y1="1172.66" x2="42.54" y2="1144.57"/>
    <line class="cls-10" x1="70.62" y1="1144.57" x2="42.54" y2="1172.66"/>
    <line class="cls-10" x1="70.62" y1="1117.23" x2="42.54" y2="1089.15"/>
    <line class="cls-10" x1="70.62" y1="1089.15" x2="42.54" y2="1117.23"/>
    <line class="cls-10" x1="186.54" y1="1255.8" x2="214.62" y2="1227.71"/>
    <line class="cls-10" x1="186.54" y1="1227.71" x2="214.62" y2="1255.8"/>
    <line class="cls-10" x1="186.54" y1="1006.01" x2="214.62" y2="1034.09"/>
    <line class="cls-10" x1="186.54" y1="1034.09" x2="214.62" y2="1006.01"/>
    <polygon class="cls-9" points="264.58 1020.05 232.58 1020.05 216.58 1047.76 232.58 1075.48 264.58 1075.48 280.58 1047.76 264.58 1020.05"/>
    <polygon class="cls-4" points="168.58 1186.33 136.58 1186.33 120.58 1158.61 136.58 1130.9 168.58 1130.9 184.58 1158.61 168.58 1186.33"/>
    <polygon class="cls-4" points="264.58 1186.33 232.58 1186.33 216.58 1158.61 232.58 1130.9 264.58 1130.9 280.58 1158.61 264.58 1186.33"/>
    <polygon class="cls-4" points="216.58 1103.19 184.58 1103.19 168.58 1130.9 184.58 1158.61 216.58 1158.61 232.58 1130.9 216.58 1103.19"/>
    <polygon class="cls-4" points="216.58 1158.61 184.58 1158.61 168.58 1186.33 184.58 1214.04 216.58 1214.04 232.58 1186.33 216.58 1158.61"/>
    <polygon class="cls-4" points="216.58 1047.76 184.58 1047.76 168.58 1075.48 184.58 1103.19 216.58 1103.19 232.58 1075.48 216.58 1047.76"/>
    <polygon class="cls-4" points="264.58 1075.48 232.58 1075.48 216.58 1103.19 232.58 1130.9 264.58 1130.9 280.58 1103.19 264.58 1075.48"/>
    <polygon class="cls-4" points="168.58 1075.48 136.58 1075.48 120.58 1103.19 136.58 1130.9 168.58 1130.9 184.58 1103.19 168.58 1075.48"/>
    <polygon class="cls-4" points="120.58 1103.19 88.58 1103.19 72.58 1130.9 88.58 1158.61 120.58 1158.61 136.58 1130.9 120.58 1103.19"/>
    <polygon class="cls-8" points="264.58 1186.33 232.58 1186.33 216.58 1214.04 232.58 1241.75 264.58 1241.75 280.58 1214.04 264.58 1186.33"/>
    <polygon class="cls-8" points="216.58 1214.04 184.58 1214.04 168.58 1241.75 184.58 1269.47 216.58 1269.47 232.58 1241.75 216.58 1214.04"/>
    <polygon class="cls-8" points="168.58 1020.05 136.58 1020.05 120.58 1047.76 136.58 1075.48 168.58 1075.48 184.58 1047.76 168.58 1020.05"/>
    <polygon class="cls-8" points="120.58 1047.76 88.58 1047.76 72.58 1075.48 88.58 1103.19 120.58 1103.19 136.58 1075.48 120.58 1047.76"/>
    <polygon class="cls-8" points="120.58 1158.61 88.58 1158.61 72.58 1186.33 88.58 1214.04 120.58 1214.04 136.58 1186.33 120.58 1158.61"/>
    <polygon class="cls-8" points="168.58 1186.33 136.58 1186.33 120.58 1214.04 136.58 1241.75 168.58 1241.75 184.58 1214.04 168.58 1186.33"/>
    <polygon class="cls-8" points="72.58 1130.9 40.58 1130.9 24.58 1158.61 40.58 1186.33 72.58 1186.33 88.58 1158.61 72.58 1130.9"/>
    <polygon class="cls-8" points="72.58 1075.48 40.58 1075.48 24.58 1103.19 40.58 1130.9 72.58 1130.9 88.58 1103.19 72.58 1075.48"/>
    <polygon class="cls-8" points="312.58 1047.76 280.58 1047.76 264.58 1075.48 280.58 1103.19 312.58 1103.19 328.58 1075.48 312.58 1047.76"/>
    <polygon class="cls-8" points="312.58 1103.19 280.58 1103.19 264.58 1130.9 280.58 1158.61 312.58 1158.61 328.58 1130.9 312.58 1103.19"/>
    <polygon class="cls-8" points="312.58 1158.61 280.58 1158.61 264.58 1186.33 280.58 1214.04 312.58 1214.04 328.58 1186.33 312.58 1158.61"/>
    <polygon class="cls-8" points="216.58 992.34 184.58 992.34 168.58 1020.05 184.58 1047.76 216.58 1047.76 232.58 1020.05 216.58 992.34"/>
  </g>
  <g>
    <line class="cls-10" x1="686.7" y1="1214.23" x2="714.79" y2="1186.14"/>
    <line class="cls-10" x1="686.7" y1="1186.14" x2="714.79" y2="1214.23"/>
    <line class="cls-10" x1="686.7" y1="1047.95" x2="714.79" y2="1019.87"/>
    <line class="cls-10" x1="686.7" y1="1019.87" x2="714.79" y2="1047.95"/>
    <line class="cls-10" x1="474.79" y1="1186.51" x2="446.7" y2="1158.43"/>
    <line class="cls-10" x1="474.79" y1="1158.43" x2="446.7" y2="1186.51"/>
    <line class="cls-10" x1="474.79" y1="1131.09" x2="446.7" y2="1103"/>
    <line class="cls-10" x1="474.79" y1="1103" x2="446.7" y2="1131.09"/>
    <line class="cls-10" x1="590.7" y1="1269.65" x2="618.79" y2="1241.57"/>
    <line class="cls-10" x1="590.7" y1="1241.57" x2="618.79" y2="1269.65"/>
    <line class="cls-10" x1="638.7" y1="993.7" x2="666.79" y2="1021.78"/>
    <line class="cls-10" x1="638.7" y1="1021.78" x2="666.79" y2="993.7"/>
    <polygon class="cls-9" points="716.74 1117.05 684.74 1117.05 668.74 1144.76 684.74 1172.47 716.74 1172.47 732.74 1144.76 716.74 1117.05"/>
    <polygon class="cls-4" points="572.74 1200.18 540.74 1200.18 524.74 1172.47 540.74 1144.76 572.74 1144.76 588.74 1172.47 572.74 1200.18"/>
    <polygon class="cls-4" points="668.74 1200.18 636.74 1200.18 620.74 1172.47 636.74 1144.76 668.74 1144.76 684.74 1172.47 668.74 1200.18"/>
    <polygon class="cls-4" points="620.74 1117.05 588.74 1117.05 572.74 1144.76 588.74 1172.47 620.74 1172.47 636.74 1144.76 620.74 1117.05"/>
    <polygon class="cls-4" points="620.74 1172.47 588.74 1172.47 572.74 1200.18 588.74 1227.9 620.74 1227.9 636.74 1200.18 620.74 1172.47"/>
    <polygon class="cls-4" points="620.74 1061.62 588.74 1061.62 572.74 1089.33 588.74 1117.05 620.74 1117.05 636.74 1089.33 620.74 1061.62"/>
    <polygon class="cls-4" points="668.74 1089.33 636.74 1089.33 620.74 1117.05 636.74 1144.76 668.74 1144.76 684.74 1117.05 668.74 1089.33"/>
    <polygon class="cls-4" points="572.74 1089.33 540.74 1089.33 524.74 1117.05 540.74 1144.76 572.74 1144.76 588.74 1117.05 572.74 1089.33"/>
    <polygon class="cls-4" points="524.74 1117.05 492.74 1117.05 476.74 1144.76 492.74 1172.47 524.74 1172.47 540.74 1144.76 524.74 1117.05"/>
    <polygon class="cls-4" points="668.74 1033.91 636.74 1033.91 620.74 1061.62 636.74 1089.33 668.74 1089.33 684.74 1061.62 668.74 1033.91"/>
    <polygon class="cls-8" points="668.74 1200.18 636.74 1200.18 620.74 1227.9 636.74 1255.61 668.74 1255.61 684.74 1227.9 668.74 1200.18"/>
    <polygon class="cls-8" points="620.74 1227.9 588.74 1227.9 572.74 1255.61 588.74 1283.32 620.74 1283.32 636.74 1255.61 620.74 1227.9"/>
    <polygon class="cls-8" points="572.74 1033.91 540.74 1033.91 524.74 1061.62 540.74 1089.33 572.74 1089.33 588.74 1061.62 572.74 1033.91"/>
    <polygon class="cls-8" points="524.74 1061.62 492.74 1061.62 476.74 1089.33 492.74 1117.05 524.74 1117.05 540.74 1089.33 524.74 1061.62"/>
    <polygon class="cls-8" points="524.74 1172.47 492.74 1172.47 476.74 1200.18 492.74 1227.9 524.74 1227.9 540.74 1200.18 524.74 1172.47"/>
    <polygon class="cls-8" points="572.74 1200.18 540.74 1200.18 524.74 1227.9 540.74 1255.61 572.74 1255.61 588.74 1227.9 572.74 1200.18"/>
    <polygon class="cls-8" points="476.74 1144.76 444.74 1144.76 428.74 1172.47 444.74 1200.18 476.74 1200.18 492.74 1172.47 476.74 1144.76"/>
    <polygon class="cls-8" points="476.74 1089.33 444.74 1089.33 428.74 1117.05 444.74 1144.76 476.74 1144.76 492.74 1117.05 476.74 1089.33"/>
    <polygon class="cls-8" points="716.74 1061.62 684.74 1061.62 668.74 1089.33 684.74 1117.05 716.74 1117.05 732.74 1089.33 716.74 1061.62"/>
    <polygon class="cls-8" points="716.74 1172.47 684.74 1172.47 668.74 1200.18 684.74 1227.9 716.74 1227.9 732.74 1200.18 716.74 1172.47"/>
    <polygon class="cls-8" points="620.74 1006.19 588.74 1006.19 572.74 1033.91 588.74 1061.62 620.74 1061.62 636.74 1033.91 620.74 1006.19"/>
    <polygon class="cls-8" points="668.74 978.48 636.74 978.48 620.74 1006.19 636.74 1033.91 668.74 1033.91 684.74 1006.19 668.74 978.48"/>
    <polygon class="cls-8" points="716.74 1006.19 684.74 1006.19 668.74 1033.91 684.74 1061.62 716.74 1061.62 732.74 1033.91 716.74 1006.19"/>
  </g>
  <g>
    <line class="cls-10" x1="1066.87" y1="1047.95" x2="1094.95" y2="1019.87"/>
    <line class="cls-10" x1="1066.87" y1="1019.87" x2="1094.95" y2="1047.95"/>
    <line class="cls-10" x1="1114.87" y1="1131.09" x2="1142.95" y2="1103"/>
    <line class="cls-10" x1="1114.87" y1="1103" x2="1142.95" y2="1131.09"/>
    <line class="cls-10" x1="1114.87" y1="1186.51" x2="1142.95" y2="1158.43"/>
    <line class="cls-10" x1="1114.87" y1="1158.43" x2="1142.95" y2="1186.51"/>
    <line class="cls-10" x1="854.95" y1="1186.51" x2="826.87" y2="1158.43"/>
    <line class="cls-10" x1="854.95" y1="1158.43" x2="826.87" y2="1186.51"/>
    <line class="cls-10" x1="854.95" y1="1131.09" x2="826.87" y2="1103"/>
    <line class="cls-10" x1="854.95" y1="1103" x2="826.87" y2="1131.09"/>
    <line class="cls-10" x1="970.87" y1="1269.65" x2="998.95" y2="1241.57"/>
    <line class="cls-10" x1="970.87" y1="1241.57" x2="998.95" y2="1269.65"/>
    <line class="cls-10" x1="1018.87" y1="993.7" x2="1046.95" y2="1021.78"/>
    <line class="cls-10" x1="1018.87" y1="1021.78" x2="1046.95" y2="993.7"/>
    <polygon class="cls-9" points="952.91 1033.91 920.91 1033.91 904.91 1061.62 920.91 1089.33 952.91 1089.33 968.91 1061.62 952.91 1033.91"/>
    <polygon class="cls-4" points="952.91 1200.18 920.91 1200.18 904.91 1172.47 920.91 1144.76 952.91 1144.76 968.91 1172.47 952.91 1200.18"/>
    <polygon class="cls-4" points="1048.91 1200.18 1016.91 1200.18 1000.91 1172.47 1016.91 1144.76 1048.91 1144.76 1064.91 1172.47 1048.91 1200.18"/>
    <polygon class="cls-4" points="1000.91 1117.05 968.91 1117.05 952.91 1144.76 968.91 1172.47 1000.91 1172.47 1016.91 1144.76 1000.91 1117.05"/>
    <polygon class="cls-4" points="1000.91 1172.47 968.91 1172.47 952.91 1200.18 968.91 1227.9 1000.91 1227.9 1016.91 1200.18 1000.91 1172.47"/>
    <polygon class="cls-4" points="1000.91 1061.62 968.91 1061.62 952.91 1089.33 968.91 1117.05 1000.91 1117.05 1016.91 1089.33 1000.91 1061.62"/>
    <polygon class="cls-4" points="1048.91 1089.33 1016.91 1089.33 1000.91 1117.05 1016.91 1144.76 1048.91 1144.76 1064.91 1117.05 1048.91 1089.33"/>
    <polygon class="cls-4" points="952.91 1089.33 920.91 1089.33 904.91 1117.05 920.91 1144.76 952.91 1144.76 968.91 1117.05 952.91 1089.33"/>
    <polygon class="cls-4" points="904.91 1117.05 872.91 1117.05 856.91 1144.76 872.91 1172.47 904.91 1172.47 920.91 1144.76 904.91 1117.05"/>
    <polygon class="cls-4" points="1096.91 1117.05 1064.91 1117.05 1048.91 1144.76 1064.91 1172.47 1096.91 1172.47 1112.91 1144.76 1096.91 1117.05"/>
    <polygon class="cls-4" points="1048.91 1033.91 1016.91 1033.91 1000.91 1061.62 1016.91 1089.33 1048.91 1089.33 1064.91 1061.62 1048.91 1033.91"/>
    <polygon class="cls-8" points="1048.91 1200.18 1016.91 1200.18 1000.91 1227.9 1016.91 1255.61 1048.91 1255.61 1064.91 1227.9 1048.91 1200.18"/>
    <polygon class="cls-8" points="1000.91 1227.9 968.91 1227.9 952.91 1255.61 968.91 1283.32 1000.91 1283.32 1016.91 1255.61 1000.91 1227.9"/>
    <polygon class="cls-8" points="904.91 1061.62 872.91 1061.62 856.91 1089.33 872.91 1117.05 904.91 1117.05 920.91 1089.33 904.91 1061.62"/>
    <polygon class="cls-8" points="904.91 1172.47 872.91 1172.47 856.91 1200.18 872.91 1227.9 904.91 1227.9 920.91 1200.18 904.91 1172.47"/>
    <polygon class="cls-8" points="952.91 1200.18 920.91 1200.18 904.91 1227.9 920.91 1255.61 952.91 1255.61 968.91 1227.9 952.91 1200.18"/>
    <polygon class="cls-8" points="856.91 1144.76 824.91 1144.76 808.91 1172.47 824.91 1200.18 856.91 1200.18 872.91 1172.47 856.91 1144.76"/>
    <polygon class="cls-8" points="856.91 1089.33 824.91 1089.33 808.91 1117.05 824.91 1144.76 856.91 1144.76 872.91 1117.05 856.91 1089.33"/>
    <polygon class="cls-8" points="1096.91 1061.62 1064.91 1061.62 1048.91 1089.33 1064.91 1117.05 1096.91 1117.05 1112.91 1089.33 1096.91 1061.62"/>
    <polygon class="cls-8" points="1144.91 1089.33 1112.91 1089.33 1096.91 1117.05 1112.91 1144.76 1144.91 1144.76 1160.91 1117.05 1144.91 1089.33"/>
    <polygon class="cls-8" points="1144.91 1144.76 1112.91 1144.76 1096.91 1172.47 1112.91 1200.18 1144.91 1200.18 1160.91 1172.47 1144.91 1144.76"/>
    <polygon class="cls-8" points="1096.91 1172.47 1064.91 1172.47 1048.91 1200.18 1064.91 1227.9 1096.91 1227.9 1112.91 1200.18 1096.91 1172.47"/>
    <polygon class="cls-8" points="1000.91 1006.19 968.91 1006.19 952.91 1033.91 968.91 1061.62 1000.91 1061.62 1016.91 1033.91 1000.91 1006.19"/>
    <polygon class="cls-8" points="1048.91 978.48 1016.91 978.48 1000.91 1006.19 1016.91 1033.91 1048.91 1033.91 1064.91 1006.19 1048.91 978.48"/>
    <polygon class="cls-8" points="1096.91 1006.19 1064.91 1006.19 1048.91 1033.91 1064.91 1061.62 1096.91 1061.62 1112.91 1033.91 1096.91 1006.19"/>
  </g>
  <g>
    <line class="cls-10" x1="306.54" y1="1665.11" x2="334.62" y2="1637.03"/>
    <line class="cls-10" x1="306.54" y1="1637.03" x2="334.62" y2="1665.11"/>
    <line class="cls-10" x1="162.54" y1="1748.25" x2="190.62" y2="1720.17"/>
    <line class="cls-10" x1="162.54" y1="1720.17" x2="190.62" y2="1748.25"/>
    <line class="cls-10" x1="18.54" y1="1665.11" x2="46.62" y2="1637.03"/>
    <line class="cls-10" x1="18.54" y1="1637.03" x2="46.62" y2="1665.11"/>
    <line class="cls-10" x1="18.54" y1="1554.26" x2="46.62" y2="1526.18"/>
    <line class="cls-10" x1="18.54" y1="1526.18" x2="46.62" y2="1554.26"/>
    <line class="cls-10" x1="114.54" y1="1499.23" x2="142.62" y2="1471.15"/>
    <line class="cls-10" x1="114.54" y1="1471.15" x2="142.62" y2="1499.23"/>
    <line class="cls-10" x1="210.54" y1="1499.23" x2="238.62" y2="1471.15"/>
    <line class="cls-10" x1="210.54" y1="1471.15" x2="238.62" y2="1499.23"/>
    <line class="cls-10" x1="258.54" y1="1526.55" x2="286.62" y2="1498.46"/>
    <line class="cls-10" x1="258.54" y1="1498.46" x2="286.62" y2="1526.55"/>
    <line class="cls-10" x1="306.53" y1="1609.69" x2="334.62" y2="1581.6"/>
    <line class="cls-10" x1="306.53" y1="1581.6" x2="334.62" y2="1609.69"/>
    <polygon class="cls-9" points="48.58 1567.93 16.58 1567.93 .58 1595.64 16.58 1623.36 48.58 1623.36 64.58 1595.64 48.58 1567.93"/>
    <polygon class="cls-4" points="144.58 1678.78 112.58 1678.78 96.58 1651.07 112.58 1623.36 144.58 1623.36 160.58 1651.07 144.58 1678.78"/>
    <polygon class="cls-4" points="240.58 1678.78 208.58 1678.78 192.58 1651.07 208.58 1623.36 240.58 1623.36 256.58 1651.07 240.58 1678.78"/>
    <polygon class="cls-4" points="192.58 1595.64 160.58 1595.64 144.58 1623.36 160.58 1651.07 192.58 1651.07 208.58 1623.36 192.58 1595.64"/>
    <polygon class="cls-4" points="192.58 1651.07 160.58 1651.07 144.58 1678.78 160.58 1706.5 192.58 1706.5 208.58 1678.78 192.58 1651.07"/>
    <polygon class="cls-4" points="192.58 1540.22 160.58 1540.22 144.58 1567.93 160.58 1595.64 192.58 1595.64 208.58 1567.93 192.58 1540.22"/>
    <polygon class="cls-4" points="240.58 1567.93 208.58 1567.93 192.58 1595.64 208.58 1623.36 240.58 1623.36 256.58 1595.64 240.58 1567.93"/>
    <polygon class="cls-4" points="144.58 1567.93 112.58 1567.93 96.58 1595.64 112.58 1623.36 144.58 1623.36 160.58 1595.64 144.58 1567.93"/>
    <polygon class="cls-4" points="96.58 1595.64 64.58 1595.64 48.58 1623.36 64.58 1651.07 96.58 1651.07 112.58 1623.36 96.58 1595.64"/>
    <polygon class="cls-4" points="288.58 1595.64 256.58 1595.64 240.58 1623.36 256.58 1651.07 288.58 1651.07 304.58 1623.36 288.58 1595.64"/>
    <polygon class="cls-4" points="240.58 1512.51 208.58 1512.51 192.58 1540.22 208.58 1567.93 240.58 1567.93 256.58 1540.22 240.58 1512.51"/>
    <polygon class="cls-4" points="144.58 1512.51 112.58 1512.51 96.58 1540.22 112.58 1567.93 144.58 1567.93 160.58 1540.22 144.58 1512.51"/>
    <polygon class="cls-4" points="96.58 1540.22 64.58 1540.22 48.58 1567.93 64.58 1595.64 96.58 1595.64 112.58 1567.93 96.58 1540.22"/>
    <polygon class="cls-8" points="48.58 1512.51 16.58 1512.51 .58 1540.22 16.58 1567.93 48.58 1567.93 64.58 1540.22 48.58 1512.51"/>
    <polygon class="cls-8" points="288.58 1540.22 256.58 1540.22 240.58 1567.93 256.58 1595.64 288.58 1595.64 304.58 1567.93 288.58 1540.22"/>
    <polygon class="cls-8" points="288.58 1484.79 256.58 1484.79 240.58 1512.51 256.58 1540.22 288.58 1540.22 304.58 1512.51 288.58 1484.79"/>
    <polygon class="cls-8" points="192.58 1484.79 160.58 1484.79 144.58 1512.51 160.58 1540.22 192.58 1540.22 208.58 1512.51 192.58 1484.79"/>
    <polygon class="cls-8" points="96.58 1484.79 64.58 1484.79 48.58 1512.51 64.58 1540.22 96.58 1540.22 112.58 1512.51 96.58 1484.79"/>
    <polygon class="cls-8" points="240.58 1457.08 208.58 1457.08 192.58 1484.79 208.58 1512.51 240.58 1512.51 256.58 1484.79 240.58 1457.08"/>
    <polygon class="cls-8" points="144.58 1457.08 112.58 1457.08 96.58 1484.79 112.58 1512.51 144.58 1512.51 160.58 1484.79 144.58 1457.08"/>
    <polygon class="cls-8" points="336.58 1623.36 304.58 1623.36 288.58 1651.07 304.58 1678.78 336.58 1678.78 352.58 1651.07 336.58 1623.36"/>
    <polygon class="cls-8" points="288.58 1651.07 256.58 1651.07 240.58 1678.78 256.58 1706.5 288.58 1706.5 304.58 1678.78 288.58 1651.07"/>
    <polygon class="cls-8" points="192.58 1706.5 160.58 1706.5 144.58 1734.21 160.58 1761.92 192.58 1761.92 208.58 1734.21 192.58 1706.5"/>
    <polygon class="cls-8" points="336.58 1567.93 304.58 1567.93 288.58 1595.64 304.58 1623.36 336.58 1623.36 352.58 1595.64 336.58 1567.93"/>
    <polygon class="cls-8" points="96.58 1651.07 64.58 1651.07 48.58 1678.78 64.58 1706.5 96.58 1706.5 112.58 1678.78 96.58 1651.07"/>
    <polygon class="cls-8" points="144.58 1678.78 112.58 1678.78 96.58 1706.5 112.58 1734.21 144.58 1734.21 160.58 1706.5 144.58 1678.78"/>
    <polygon class="cls-8" points="240.58 1678.78 208.58 1678.78 192.58 1706.5 208.58 1734.21 240.58 1734.21 256.58 1706.5 240.58 1678.78"/>
    <polygon class="cls-8" points="48.58 1623.36 16.58 1623.36 .58 1651.07 16.58 1678.78 48.58 1678.78 64.58 1651.07 48.58 1623.36"/>
  </g>
  <g>
    <line class="cls-10" x1="703.91" y1="1653.99" x2="726.38" y2="1631.52"/>
    <line class="cls-10" x1="703.91" y1="1631.52" x2="726.38" y2="1653.99"/>
    <line class="cls-10" x1="588.71" y1="1720.5" x2="611.18" y2="1698.03"/>
    <line class="cls-10" x1="588.71" y1="1698.03" x2="611.18" y2="1720.5"/>
    <line class="cls-10" x1="435.11" y1="1631.82" x2="457.58" y2="1609.35"/>
    <line class="cls-10" x1="435.11" y1="1609.35" x2="457.58" y2="1631.82"/>
    <line class="cls-10" x1="435.11" y1="1587.48" x2="457.58" y2="1565.01"/>
    <line class="cls-10" x1="435.11" y1="1565.01" x2="457.58" y2="1587.48"/>
    <line class="cls-10" x1="550.31" y1="1521.29" x2="572.78" y2="1498.82"/>
    <line class="cls-10" x1="550.31" y1="1498.82" x2="572.78" y2="1521.29"/>
    <line class="cls-10" x1="627.11" y1="1521.29" x2="649.58" y2="1498.82"/>
    <line class="cls-10" x1="627.11" y1="1498.82" x2="649.58" y2="1521.29"/>
    <line class="cls-10" x1="665.51" y1="1543.14" x2="687.98" y2="1520.67"/>
    <line class="cls-10" x1="665.51" y1="1520.67" x2="687.98" y2="1543.14"/>
    <line class="cls-10" x1="703.91" y1="1609.65" x2="726.38" y2="1587.18"/>
    <line class="cls-10" x1="703.91" y1="1587.18" x2="726.38" y2="1609.65"/>
    <polygon class="cls-9" points="497.54 1620.59 471.94 1620.59 459.14 1642.76 471.94 1664.93 497.54 1664.93 510.34 1642.76 497.54 1620.59"/>
    <polygon class="cls-4" points="574.34 1664.93 548.74 1664.93 535.94 1642.76 548.74 1620.59 574.34 1620.59 587.14 1642.76 574.34 1664.93"/>
    <polygon class="cls-4" points="651.14 1664.93 625.54 1664.93 612.74 1642.76 625.54 1620.59 651.14 1620.59 663.94 1642.76 651.14 1664.93"/>
    <polygon class="cls-4" points="612.74 1598.42 587.14 1598.42 574.34 1620.59 587.14 1642.76 612.74 1642.76 625.54 1620.59 612.74 1598.42"/>
    <polygon class="cls-4" points="612.74 1642.76 587.14 1642.76 574.34 1664.93 587.14 1687.1 612.74 1687.1 625.54 1664.93 612.74 1642.76"/>
    <polygon class="cls-4" points="612.74 1554.08 587.14 1554.08 574.34 1576.25 587.14 1598.42 612.74 1598.42 625.54 1576.25 612.74 1554.08"/>
    <polygon class="cls-4" points="651.14 1576.25 625.54 1576.25 612.74 1598.42 625.54 1620.59 651.14 1620.59 663.94 1598.42 651.14 1576.25"/>
    <polygon class="cls-4" points="574.34 1576.25 548.74 1576.25 535.94 1598.42 548.74 1620.59 574.34 1620.59 587.14 1598.42 574.34 1576.25"/>
    <polygon class="cls-4" points="535.94 1598.42 510.34 1598.42 497.54 1620.59 510.34 1642.76 535.94 1642.76 548.74 1620.59 535.94 1598.42"/>
    <polygon class="cls-4" points="689.54 1598.42 663.94 1598.42 651.14 1620.59 663.94 1642.76 689.54 1642.76 702.34 1620.59 689.54 1598.42"/>
    <polygon class="cls-4" points="651.14 1531.9 625.54 1531.9 612.74 1554.08 625.54 1576.25 651.14 1576.25 663.94 1554.08 651.14 1531.9"/>
    <polygon class="cls-4" points="574.34 1531.9 548.74 1531.9 535.94 1554.08 548.74 1576.25 574.34 1576.25 587.14 1554.08 574.34 1531.9"/>
    <polygon class="cls-4" points="535.94 1554.08 510.34 1554.08 497.54 1576.25 510.34 1598.42 535.94 1598.42 548.74 1576.25 535.94 1554.08"/>
    <polygon class="cls-4" points="497.54 1576.25 471.94 1576.25 459.14 1598.42 471.94 1620.59 497.54 1620.59 510.34 1598.42 497.54 1576.25"/>
    <polygon class="cls-8" points="497.54 1531.9 471.94 1531.9 459.14 1554.08 471.94 1576.25 497.54 1576.25 510.34 1554.08 497.54 1531.9"/>
    <polygon class="cls-8" points="689.54 1554.08 663.94 1554.08 651.14 1576.25 663.94 1598.42 689.54 1598.42 702.34 1576.25 689.54 1554.08"/>
    <polygon class="cls-8" points="689.54 1509.73 663.94 1509.73 651.14 1531.9 663.94 1554.08 689.54 1554.08 702.34 1531.9 689.54 1509.73"/>
    <polygon class="cls-8" points="612.74 1509.73 587.14 1509.73 574.34 1531.9 587.14 1554.08 612.74 1554.08 625.54 1531.9 612.74 1509.73"/>
    <polygon class="cls-8" points="535.94 1509.73 510.34 1509.73 497.54 1531.9 510.34 1554.08 535.94 1554.08 548.74 1531.9 535.94 1509.73"/>
    <polygon class="cls-8" points="651.14 1487.56 625.54 1487.56 612.74 1509.73 625.54 1531.9 651.14 1531.9 663.94 1509.73 651.14 1487.56"/>
    <polygon class="cls-8" points="574.34 1487.56 548.74 1487.56 535.94 1509.73 548.74 1531.9 574.34 1531.9 587.14 1509.73 574.34 1487.56"/>
    <polygon class="cls-8" points="727.94 1620.59 702.34 1620.59 689.54 1642.76 702.34 1664.93 727.94 1664.93 740.74 1642.76 727.94 1620.59"/>
    <polygon class="cls-8" points="689.54 1642.76 663.94 1642.76 651.14 1664.93 663.94 1687.1 689.54 1687.1 702.34 1664.93 689.54 1642.76"/>
    <polygon class="cls-8" points="612.74 1687.1 587.14 1687.1 574.34 1709.27 587.14 1731.44 612.74 1731.44 625.54 1709.27 612.74 1687.1"/>
    <polygon class="cls-8" points="727.94 1576.25 702.34 1576.25 689.54 1598.42 702.34 1620.59 727.94 1620.59 740.74 1598.42 727.94 1576.25"/>
    <polygon class="cls-8" points="535.94 1642.76 510.34 1642.76 497.54 1664.93 510.34 1687.1 535.94 1687.1 548.74 1664.93 535.94 1642.76"/>
    <polygon class="cls-8" points="574.34 1664.93 548.74 1664.93 535.94 1687.1 548.74 1709.27 574.34 1709.27 587.14 1687.1 574.34 1664.93"/>
    <polygon class="cls-8" points="651.14 1664.93 625.54 1664.93 612.74 1687.1 625.54 1709.27 651.14 1709.27 663.94 1687.1 651.14 1664.93"/>
    <polygon class="cls-8" points="459.14 1598.42 433.54 1598.42 420.74 1620.59 433.54 1642.76 459.14 1642.76 471.94 1620.59 459.14 1598.42"/>
    <polygon class="cls-8" points="459.14 1554.08 433.54 1554.08 420.74 1576.25 433.54 1598.42 459.14 1598.42 471.94 1576.25 459.14 1554.08"/>
  </g>
  <g>
    <line class="cls-10" x1="1108.08" y1="1653.99" x2="1130.54" y2="1631.52"/>
    <line class="cls-10" x1="1108.08" y1="1631.52" x2="1130.54" y2="1653.99"/>
    <line class="cls-10" x1="992.88" y1="1720.5" x2="1015.34" y2="1698.03"/>
    <line class="cls-10" x1="992.88" y1="1698.03" x2="1015.34" y2="1720.5"/>
    <line class="cls-10" x1="839.28" y1="1676.16" x2="861.74" y2="1653.69"/>
    <line class="cls-10" x1="839.28" y1="1653.69" x2="861.74" y2="1676.16"/>
    <line class="cls-10" x1="877.68" y1="1698.33" x2="900.14" y2="1675.86"/>
    <line class="cls-10" x1="877.68" y1="1675.86" x2="900.14" y2="1698.33"/>
    <line class="cls-10" x1="839.28" y1="1587.48" x2="861.74" y2="1565.01"/>
    <line class="cls-10" x1="839.28" y1="1565.01" x2="861.74" y2="1587.48"/>
    <line class="cls-10" x1="954.48" y1="1521.29" x2="976.94" y2="1498.82"/>
    <line class="cls-10" x1="954.48" y1="1498.82" x2="976.94" y2="1521.29"/>
    <line class="cls-10" x1="1031.28" y1="1521.29" x2="1053.74" y2="1498.82"/>
    <line class="cls-10" x1="1031.28" y1="1498.82" x2="1053.74" y2="1521.29"/>
    <line class="cls-10" x1="1069.68" y1="1543.14" x2="1092.14" y2="1520.67"/>
    <line class="cls-10" x1="1069.68" y1="1520.67" x2="1092.14" y2="1543.14"/>
    <line class="cls-10" x1="1108.08" y1="1609.65" x2="1130.54" y2="1587.18"/>
    <line class="cls-10" x1="1108.08" y1="1587.18" x2="1130.54" y2="1609.65"/>
    <polygon class="cls-9" points="1016.91 1509.73 991.31 1509.73 978.51 1531.9 991.31 1554.08 1016.91 1554.08 1029.71 1531.9 1016.91 1509.73"/>
    <polygon class="cls-4" points="978.51 1664.93 952.91 1664.93 940.11 1642.76 952.91 1620.59 978.51 1620.59 991.31 1642.76 978.51 1664.93"/>
    <polygon class="cls-4" points="1055.31 1664.93 1029.71 1664.93 1016.91 1642.76 1029.71 1620.59 1055.31 1620.59 1068.11 1642.76 1055.31 1664.93"/>
    <polygon class="cls-4" points="1016.91 1598.42 991.31 1598.42 978.51 1620.59 991.31 1642.76 1016.91 1642.76 1029.71 1620.59 1016.91 1598.42"/>
    <polygon class="cls-4" points="1016.91 1642.76 991.31 1642.76 978.51 1664.93 991.31 1687.1 1016.91 1687.1 1029.71 1664.93 1016.91 1642.76"/>
    <polygon class="cls-4" points="1016.91 1554.08 991.31 1554.08 978.51 1576.25 991.31 1598.42 1016.91 1598.42 1029.71 1576.25 1016.91 1554.08"/>
    <polygon class="cls-4" points="1055.31 1576.25 1029.71 1576.25 1016.91 1598.42 1029.71 1620.59 1055.31 1620.59 1068.11 1598.42 1055.31 1576.25"/>
    <polygon class="cls-4" points="978.51 1576.25 952.91 1576.25 940.11 1598.42 952.91 1620.59 978.51 1620.59 991.31 1598.42 978.51 1576.25"/>
    <polygon class="cls-4" points="940.11 1598.42 914.51 1598.42 901.71 1620.59 914.51 1642.76 940.11 1642.76 952.91 1620.59 940.11 1598.42"/>
    <polygon class="cls-4" points="1093.71 1598.42 1068.11 1598.42 1055.31 1620.59 1068.11 1642.76 1093.71 1642.76 1106.51 1620.59 1093.71 1598.42"/>
    <polygon class="cls-4" points="1055.31 1531.9 1029.71 1531.9 1016.91 1554.08 1029.71 1576.25 1055.31 1576.25 1068.11 1554.08 1055.31 1531.9"/>
    <polygon class="cls-4" points="978.51 1531.9 952.91 1531.9 940.11 1554.08 952.91 1576.25 978.51 1576.25 991.31 1554.08 978.51 1531.9"/>
    <polygon class="cls-4" points="940.11 1554.08 914.51 1554.08 901.71 1576.25 914.51 1598.42 940.11 1598.42 952.91 1576.25 940.11 1554.08"/>
    <polygon class="cls-4" points="901.71 1576.25 876.11 1576.25 863.31 1598.42 876.11 1620.59 901.71 1620.59 914.51 1598.42 901.71 1576.25"/>
    <polygon class="cls-4" points="901.71 1620.59 876.11 1620.59 863.31 1642.76 876.11 1664.93 901.71 1664.93 914.51 1642.76 901.71 1620.59"/>
    <polygon class="cls-8" points="901.71 1531.9 876.11 1531.9 863.31 1554.08 876.11 1576.25 901.71 1576.25 914.51 1554.08 901.71 1531.9"/>
    <polygon class="cls-8" points="1093.71 1554.08 1068.11 1554.08 1055.31 1576.25 1068.11 1598.42 1093.71 1598.42 1106.51 1576.25 1093.71 1554.08"/>
    <polygon class="cls-8" points="1093.71 1509.73 1068.11 1509.73 1055.31 1531.9 1068.11 1554.08 1093.71 1554.08 1106.51 1531.9 1093.71 1509.73"/>
    <polygon class="cls-8" points="940.11 1509.73 914.51 1509.73 901.71 1531.9 914.51 1554.08 940.11 1554.08 952.91 1531.9 940.11 1509.73"/>
    <polygon class="cls-8" points="1055.31 1487.56 1029.71 1487.56 1016.91 1509.73 1029.71 1531.9 1055.31 1531.9 1068.11 1509.73 1055.31 1487.56"/>
    <polygon class="cls-8" points="978.51 1487.56 952.91 1487.56 940.11 1509.73 952.91 1531.9 978.51 1531.9 991.31 1509.73 978.51 1487.56"/>
    <polygon class="cls-8" points="1132.11 1620.59 1106.51 1620.59 1093.71 1642.76 1106.51 1664.93 1132.11 1664.93 1144.91 1642.76 1132.11 1620.59"/>
    <polygon class="cls-8" points="1093.71 1642.76 1068.11 1642.76 1055.31 1664.93 1068.11 1687.1 1093.71 1687.1 1106.51 1664.93 1093.71 1642.76"/>
    <polygon class="cls-8" points="1016.91 1687.1 991.31 1687.1 978.51 1709.27 991.31 1731.44 1016.91 1731.44 1029.71 1709.27 1016.91 1687.1"/>
    <polygon class="cls-8" points="1132.11 1576.25 1106.51 1576.25 1093.71 1598.42 1106.51 1620.59 1132.11 1620.59 1144.91 1598.42 1132.11 1576.25"/>
    <polygon class="cls-8" points="940.11 1642.76 914.51 1642.76 901.71 1664.93 914.51 1687.1 940.11 1687.1 952.91 1664.93 940.11 1642.76"/>
    <polygon class="cls-8" points="863.31 1598.42 837.71 1598.42 824.91 1620.59 837.71 1642.76 863.31 1642.76 876.11 1620.59 863.31 1598.42"/>
    <polygon class="cls-8" points="978.51 1664.93 952.91 1664.93 940.11 1687.1 952.91 1709.27 978.51 1709.27 991.31 1687.1 978.51 1664.93"/>
    <polygon class="cls-8" points="1055.31 1664.93 1029.71 1664.93 1016.91 1687.1 1029.71 1709.27 1055.31 1709.27 1068.11 1687.1 1055.31 1664.93"/>
    <polygon class="cls-8" points="863.31 1642.76 837.71 1642.76 824.91 1664.93 837.71 1687.1 863.31 1687.1 876.11 1664.93 863.31 1642.76"/>
    <polygon class="cls-8" points="901.71 1664.93 876.11 1664.93 863.31 1687.1 876.11 1709.27 901.71 1709.27 914.51 1687.1 901.71 1664.93"/>
    <polygon class="cls-8" points="863.31 1554.08 837.71 1554.08 824.91 1576.25 837.71 1598.42 863.31 1598.42 876.11 1576.25 863.31 1554.08"/>
  </g>
  <g>
    <line class="cls-10" x1="1512.24" y1="1665.07" x2="1534.71" y2="1642.61"/>
    <line class="cls-10" x1="1512.24" y1="1642.61" x2="1534.71" y2="1665.07"/>
    <line class="cls-10" x1="1397.04" y1="1731.59" x2="1419.51" y2="1709.12"/>
    <line class="cls-10" x1="1397.04" y1="1709.12" x2="1419.51" y2="1731.59"/>
    <line class="cls-10" x1="1243.44" y1="1687.25" x2="1265.91" y2="1664.78"/>
    <line class="cls-10" x1="1243.44" y1="1664.78" x2="1265.91" y2="1687.25"/>
    <line class="cls-10" x1="1281.84" y1="1709.42" x2="1304.31" y2="1686.95"/>
    <line class="cls-10" x1="1281.84" y1="1686.95" x2="1304.31" y2="1709.42"/>
    <line class="cls-10" x1="1243.44" y1="1598.56" x2="1265.91" y2="1576.1"/>
    <line class="cls-10" x1="1243.44" y1="1576.1" x2="1265.91" y2="1598.56"/>
    <line class="cls-10" x1="1397.04" y1="1510.2" x2="1419.51" y2="1487.74"/>
    <line class="cls-10" x1="1397.04" y1="1487.74" x2="1419.51" y2="1510.2"/>
    <line class="cls-10" x1="1473.84" y1="1554.22" x2="1496.31" y2="1531.76"/>
    <line class="cls-10" x1="1473.84" y1="1531.76" x2="1496.31" y2="1554.22"/>
    <line class="cls-10" x1="1512.24" y1="1620.73" x2="1534.71" y2="1598.27"/>
    <line class="cls-10" x1="1512.24" y1="1598.27" x2="1534.71" y2="1620.73"/>
    <polygon class="cls-9" points="1459.48 1676.01 1433.88 1676.01 1421.08 1698.18 1433.88 1720.35 1459.48 1720.35 1472.28 1698.18 1459.48 1676.01"/>
    <polygon class="cls-4" points="1382.68 1676.01 1357.08 1676.01 1344.28 1653.84 1357.08 1631.67 1382.68 1631.67 1395.48 1653.84 1382.68 1676.01"/>
    <polygon class="cls-4" points="1459.48 1676.01 1433.88 1676.01 1421.08 1653.84 1433.88 1631.67 1459.48 1631.67 1472.28 1653.84 1459.48 1676.01"/>
    <polygon class="cls-4" points="1421.08 1609.5 1395.48 1609.5 1382.68 1631.67 1395.48 1653.84 1421.08 1653.84 1433.88 1631.67 1421.08 1609.5"/>
    <polygon class="cls-4" points="1421.08 1653.84 1395.48 1653.84 1382.68 1676.01 1395.48 1698.18 1421.08 1698.18 1433.88 1676.01 1421.08 1653.84"/>
    <polygon class="cls-4" points="1421.08 1565.16 1395.48 1565.16 1382.68 1587.33 1395.48 1609.5 1421.08 1609.5 1433.88 1587.33 1421.08 1565.16"/>
    <polygon class="cls-4" points="1459.48 1587.33 1433.88 1587.33 1421.08 1609.5 1433.88 1631.67 1459.48 1631.67 1472.28 1609.5 1459.48 1587.33"/>
    <polygon class="cls-4" points="1382.68 1587.33 1357.08 1587.33 1344.28 1609.5 1357.08 1631.67 1382.68 1631.67 1395.48 1609.5 1382.68 1587.33"/>
    <polygon class="cls-4" points="1344.28 1609.5 1318.68 1609.5 1305.88 1631.67 1318.68 1653.84 1344.28 1653.84 1357.08 1631.67 1344.28 1609.5"/>
    <polygon class="cls-4" points="1497.88 1609.5 1472.28 1609.5 1459.48 1631.67 1472.28 1653.84 1497.88 1653.84 1510.68 1631.67 1497.88 1609.5"/>
    <polygon class="cls-4" points="1459.48 1542.99 1433.88 1542.99 1421.08 1565.16 1433.88 1587.33 1459.48 1587.33 1472.28 1565.16 1459.48 1542.99"/>
    <polygon class="cls-4" points="1382.68 1542.99 1357.08 1542.99 1344.28 1565.16 1357.08 1587.33 1382.68 1587.33 1395.48 1565.16 1382.68 1542.99"/>
    <polygon class="cls-4" points="1344.28 1565.16 1318.68 1565.16 1305.88 1587.33 1318.68 1609.5 1344.28 1609.5 1357.08 1587.33 1344.28 1565.16"/>
    <polygon class="cls-4" points="1305.88 1587.33 1280.28 1587.33 1267.48 1609.5 1280.28 1631.67 1305.88 1631.67 1318.68 1609.5 1305.88 1587.33"/>
    <polygon class="cls-4" points="1305.88 1631.67 1280.28 1631.67 1267.48 1653.84 1280.28 1676.01 1305.88 1676.01 1318.68 1653.84 1305.88 1631.67"/>
    <polygon class="cls-4" points="1421.08 1520.82 1395.48 1520.82 1382.68 1542.99 1395.48 1565.16 1421.08 1565.16 1433.88 1542.99 1421.08 1520.82"/>
    <polygon class="cls-8" points="1305.88 1542.99 1280.28 1542.99 1267.48 1565.16 1280.28 1587.33 1305.88 1587.33 1318.68 1565.16 1305.88 1542.99"/>
    <polygon class="cls-8" points="1497.88 1565.16 1472.28 1565.16 1459.48 1587.33 1472.28 1609.5 1497.88 1609.5 1510.68 1587.33 1497.88 1565.16"/>
    <polygon class="cls-8" points="1497.88 1520.82 1472.28 1520.82 1459.48 1542.99 1472.28 1565.16 1497.88 1565.16 1510.68 1542.99 1497.88 1520.82"/>
    <polygon class="cls-8" points="1344.28 1520.82 1318.68 1520.82 1305.88 1542.99 1318.68 1565.16 1344.28 1565.16 1357.08 1542.99 1344.28 1520.82"/>
    <polygon class="cls-8" points="1459.48 1498.65 1433.88 1498.65 1421.08 1520.82 1433.88 1542.99 1459.48 1542.99 1472.28 1520.82 1459.48 1498.65"/>
    <polygon class="cls-8" points="1382.68 1498.65 1357.08 1498.65 1344.28 1520.82 1357.08 1542.99 1382.68 1542.99 1395.48 1520.82 1382.68 1498.65"/>
    <polygon class="cls-8" points="1421.08 1476.48 1395.48 1476.48 1382.68 1498.65 1395.48 1520.82 1421.08 1520.82 1433.88 1498.65 1421.08 1476.48"/>
    <polygon class="cls-8" points="1536.28 1631.67 1510.68 1631.67 1497.88 1653.84 1510.68 1676.01 1536.28 1676.01 1549.08 1653.84 1536.28 1631.67"/>
    <polygon class="cls-8" points="1497.88 1653.84 1472.28 1653.84 1459.48 1676.01 1472.28 1698.18 1497.88 1698.18 1510.68 1676.01 1497.88 1653.84"/>
    <polygon class="cls-8" points="1421.08 1698.18 1395.48 1698.18 1382.68 1720.35 1395.48 1742.52 1421.08 1742.52 1433.88 1720.35 1421.08 1698.18"/>
    <polygon class="cls-8" points="1536.28 1587.33 1510.68 1587.33 1497.88 1609.5 1510.68 1631.67 1536.28 1631.67 1549.08 1609.5 1536.28 1587.33"/>
    <polygon class="cls-8" points="1344.28 1653.84 1318.68 1653.84 1305.88 1676.01 1318.68 1698.18 1344.28 1698.18 1357.08 1676.01 1344.28 1653.84"/>
    <polygon class="cls-8" points="1267.48 1609.5 1241.88 1609.5 1229.08 1631.67 1241.88 1653.84 1267.48 1653.84 1280.28 1631.67 1267.48 1609.5"/>
    <polygon class="cls-8" points="1382.68 1676.01 1357.08 1676.01 1344.28 1698.18 1357.08 1720.35 1382.68 1720.35 1395.48 1698.18 1382.68 1676.01"/>
    <polygon class="cls-8" points="1267.48 1653.84 1241.88 1653.84 1229.08 1676.01 1241.88 1698.18 1267.48 1698.18 1280.28 1676.01 1267.48 1653.84"/>
    <polygon class="cls-8" points="1305.88 1676.01 1280.28 1676.01 1267.48 1698.18 1280.28 1720.35 1305.88 1720.35 1318.68 1698.18 1305.88 1676.01"/>
    <polygon class="cls-8" points="1267.48 1565.16 1241.88 1565.16 1229.08 1587.33 1241.88 1609.5 1267.48 1609.5 1280.28 1587.33 1267.48 1565.16"/>
  </g>
  <g>
    <line class="cls-10" x1="454.31" y1="2066.08" x2="476.78" y2="2043.61"/>
    <line class="cls-10" x1="454.31" y1="2043.61" x2="476.78" y2="2066.08"/>
    <line class="cls-10" x1="454.31" y1="2154.76" x2="476.78" y2="2132.29"/>
    <line class="cls-10" x1="454.31" y1="2132.29" x2="476.78" y2="2154.76"/>
    <line class="cls-10" x1="492.71" y1="2176.93" x2="515.18" y2="2154.46"/>
    <line class="cls-10" x1="492.71" y1="2154.46" x2="515.18" y2="2176.93"/>
    <line class="cls-10" x1="607.91" y1="1977.4" x2="630.38" y2="1954.93"/>
    <line class="cls-10" x1="607.91" y1="1954.93" x2="630.38" y2="1977.4"/>
    <line class="cls-10" x1="684.71" y1="2199.1" x2="707.18" y2="2176.63"/>
    <line class="cls-10" x1="684.71" y1="2176.63" x2="707.18" y2="2199.1"/>
    <line class="cls-10" x1="646.31" y1="2221.27" x2="668.78" y2="2198.8"/>
    <line class="cls-10" x1="646.31" y1="2198.8" x2="668.78" y2="2221.27"/>
    <polygon class="cls-9" points="631.94 2165.7 606.34 2165.7 593.54 2187.87 606.34 2210.04 631.94 2210.04 644.74 2187.87 631.94 2165.7"/>
    <polygon class="cls-4" points="593.54 2143.52 567.94 2143.52 555.14 2121.35 567.94 2099.18 593.54 2099.18 606.34 2121.35 593.54 2143.52"/>
    <polygon class="cls-4" points="670.34 2143.52 644.74 2143.52 631.94 2121.35 644.74 2099.18 670.34 2099.18 683.14 2121.35 670.34 2143.52"/>
    <polygon class="cls-4" points="631.94 2077.01 606.34 2077.01 593.54 2099.18 606.34 2121.35 631.94 2121.35 644.74 2099.18 631.94 2077.01"/>
    <polygon class="cls-4" points="631.94 2121.35 606.34 2121.35 593.54 2143.52 606.34 2165.7 631.94 2165.7 644.74 2143.52 631.94 2121.35"/>
    <polygon class="cls-4" points="631.94 2032.67 606.34 2032.67 593.54 2054.84 606.34 2077.01 631.94 2077.01 644.74 2054.84 631.94 2032.67"/>
    <polygon class="cls-4" points="670.34 2054.84 644.74 2054.84 631.94 2077.01 644.74 2099.18 670.34 2099.18 683.14 2077.01 670.34 2054.84"/>
    <polygon class="cls-4" points="593.54 2054.84 567.94 2054.84 555.14 2077.01 567.94 2099.18 593.54 2099.18 606.34 2077.01 593.54 2054.84"/>
    <polygon class="cls-4" points="555.14 2077.01 529.54 2077.01 516.74 2099.18 529.54 2121.35 555.14 2121.35 567.94 2099.18 555.14 2077.01"/>
    <polygon class="cls-4" points="708.74 2077.01 683.14 2077.01 670.34 2099.18 683.14 2121.35 708.74 2121.35 721.54 2099.18 708.74 2077.01"/>
    <polygon class="cls-4" points="670.34 2010.5 644.74 2010.5 631.94 2032.67 644.74 2054.84 670.34 2054.84 683.14 2032.67 670.34 2010.5"/>
    <polygon class="cls-4" points="593.54 2010.5 567.94 2010.5 555.14 2032.67 567.94 2054.84 593.54 2054.84 606.34 2032.67 593.54 2010.5"/>
    <polygon class="cls-4" points="555.14 2032.67 529.54 2032.67 516.74 2054.84 529.54 2077.01 555.14 2077.01 567.94 2054.84 555.14 2032.67"/>
    <polygon class="cls-4" points="516.74 2054.84 491.14 2054.84 478.34 2077.01 491.14 2099.18 516.74 2099.18 529.54 2077.01 516.74 2054.84"/>
    <polygon class="cls-4" points="516.74 2099.18 491.14 2099.18 478.34 2121.35 491.14 2143.52 516.74 2143.52 529.54 2121.35 516.74 2099.18"/>
    <polygon class="cls-4" points="631.94 1988.33 606.34 1988.33 593.54 2010.5 606.34 2032.67 631.94 2032.67 644.74 2010.5 631.94 1988.33"/>
    <polygon class="cls-4" points="670.34 2143.52 644.74 2143.52 631.94 2165.7 644.74 2187.87 670.34 2187.87 683.14 2165.7 670.34 2143.52"/>
    <polygon class="cls-8" points="516.74 2010.5 491.14 2010.5 478.34 2032.67 491.14 2054.84 516.74 2054.84 529.54 2032.67 516.74 2010.5"/>
    <polygon class="cls-8" points="555.14 1988.33 529.54 1988.33 516.74 2010.5 529.54 2032.67 555.14 2032.67 567.94 2010.5 555.14 1988.33"/>
    <polygon class="cls-8" points="593.54 1966.16 567.94 1966.16 555.14 1988.33 567.94 2010.5 593.54 2010.5 606.34 1988.33 593.54 1966.16"/>
    <polygon class="cls-8" points="670.34 1966.16 644.74 1966.16 631.94 1988.33 644.74 2010.5 670.34 2010.5 683.14 1988.33 670.34 1966.16"/>
    <polygon class="cls-8" points="708.74 2121.35 683.14 2121.35 670.34 2143.52 683.14 2165.7 708.74 2165.7 721.54 2143.52 708.74 2121.35"/>
    <polygon class="cls-8" points="478.34 2077.01 452.74 2077.01 439.94 2099.18 452.74 2121.35 478.34 2121.35 491.14 2099.18 478.34 2077.01"/>
    <polygon class="cls-8" points="555.14 2121.35 529.54 2121.35 516.74 2143.52 529.54 2165.7 555.14 2165.7 567.94 2143.52 555.14 2121.35"/>
    <polygon class="cls-8" points="478.34 2032.67 452.74 2032.67 439.94 2054.84 452.74 2077.01 478.34 2077.01 491.14 2054.84 478.34 2032.67"/>
    <polygon class="cls-8" points="478.34 2121.35 452.74 2121.35 439.94 2143.52 452.74 2165.7 478.34 2165.7 491.14 2143.52 478.34 2121.35"/>
    <polygon class="cls-8" points="516.74 2143.52 491.14 2143.52 478.34 2165.7 491.14 2187.87 516.74 2187.87 529.54 2165.7 516.74 2143.52"/>
    <polygon class="cls-8" points="631.94 1943.99 606.34 1943.99 593.54 1966.16 606.34 1988.33 631.94 1988.33 644.74 1966.16 631.94 1943.99"/>
    <polygon class="cls-8" points="708.74 2165.7 683.14 2165.7 670.34 2187.87 683.14 2210.04 708.74 2210.04 721.54 2187.87 708.74 2165.7"/>
    <polygon class="cls-8" points="670.34 2187.87 644.74 2187.87 631.94 2210.04 644.74 2232.21 670.34 2232.21 683.14 2210.04 670.34 2187.87"/>
  </g>
  <g>
    <line class="cls-10" x1="887.97" y1="238.95" x2="931.85" y2="195.07"/>
    <line class="cls-10" x1="887.97" y1="195.07" x2="931.85" y2="238.95"/>
    <line class="cls-10" x1="1037.97" y1="238.95" x2="1081.85" y2="195.07"/>
    <line class="cls-10" x1="1037.97" y1="195.07" x2="1081.85" y2="238.95"/>
    <line class="cls-10" x1="962.97" y1="282.25" x2="1006.85" y2="238.37"/>
    <line class="cls-10" x1="962.97" y1="238.37" x2="1006.85" y2="282.25"/>
    <polygon class="cls-9" points="1084.91 87.1 1034.91 87.1 1009.91 130.4 1034.91 173.71 1084.91 173.71 1109.91 130.4 1084.91 87.1"/>
    <polygon class="cls-4" points="1009.91 130.4 959.91 130.4 934.91 173.71 959.91 217.01 1009.91 217.01 1034.91 173.71 1009.91 130.4"/>
    <polygon class="cls-4" points="1009.91 43.8 959.91 43.8 934.91 87.1 959.91 130.4 1009.91 130.4 1034.91 87.1 1009.91 43.8"/>
    <g>
      <polyline class="cls-4" points="936.33 176.16 934.91 173.71 932.08 173.71"/>
      <line class="cls-7" x1="925.74" y1="173.71" x2="890.91" y2="173.71"/>
      <polyline class="cls-4" points="887.75 173.71 884.91 173.71 883.49 176.16"/>
      <line class="cls-7" x1="880.33" y1="181.64" x2="862.91" y2="211.81"/>
      <polyline class="cls-4" points="861.33 214.55 859.91 217.01 861.33 219.46"/>
      <line class="cls-7" x1="864.49" y1="224.95" x2="881.91" y2="255.11"/>
      <polyline class="cls-4" points="883.49 257.85 884.91 260.31 887.75 260.31"/>
      <line class="cls-7" x1="894.08" y1="260.31" x2="928.91" y2="260.31"/>
      <polyline class="cls-4" points="932.08 260.31 934.91 260.31 936.33 257.85"/>
      <line class="cls-7" x1="939.49" y1="252.37" x2="956.91" y2="222.2"/>
      <polyline class="cls-4" points="958.49 219.46 959.91 217.01 958.49 214.55"/>
      <line class="cls-7" x1="955.33" y1="209.07" x2="937.91" y2="178.9"/>
    </g>
    <g>
      <polyline class="cls-4" points="1011.33 219.46 1009.91 217.01 1007.08 217.01"/>
      <line class="cls-7" x1="1000.74" y1="217.01" x2="965.91" y2="217.01"/>
      <polyline class="cls-4" points="962.75 217.01 959.91 217.01 958.49 219.46"/>
      <line class="cls-7" x1="955.33" y1="224.95" x2="937.91" y2="255.11"/>
      <polyline class="cls-4" points="936.33 257.85 934.91 260.31 936.33 262.76"/>
      <line class="cls-7" x1="939.49" y1="268.25" x2="956.91" y2="298.41"/>
      <polyline class="cls-4" points="958.49 301.15 959.91 303.61 962.75 303.61"/>
      <line class="cls-7" x1="969.08" y1="303.61" x2="1003.91" y2="303.61"/>
      <polyline class="cls-4" points="1007.08 303.61 1009.91 303.61 1011.33 301.15"/>
      <line class="cls-7" x1="1014.49" y1="295.67" x2="1031.91" y2="265.5"/>
      <polyline class="cls-4" points="1033.49 262.76 1034.91 260.31 1033.49 257.85"/>
      <line class="cls-7" x1="1030.33" y1="252.37" x2="1012.91" y2="222.2"/>
    </g>
    <g>
      <polyline class="cls-4" points="1086.33 176.16 1084.91 173.71 1082.08 173.71"/>
      <line class="cls-7" x1="1075.74" y1="173.71" x2="1040.91" y2="173.71"/>
      <polyline class="cls-4" points="1037.75 173.71 1034.91 173.71 1033.49 176.16"/>
      <line class="cls-7" x1="1030.33" y1="181.64" x2="1012.91" y2="211.81"/>
      <polyline class="cls-4" points="1011.33 214.55 1009.91 217.01 1011.33 219.46"/>
      <line class="cls-7" x1="1014.49" y1="224.95" x2="1031.91" y2="255.11"/>
      <polyline class="cls-4" points="1033.49 257.85 1034.91 260.31 1037.75 260.31"/>
      <line class="cls-7" x1="1044.08" y1="260.31" x2="1078.91" y2="260.31"/>
      <polyline class="cls-4" points="1082.08 260.31 1084.91 260.31 1086.33 257.85"/>
      <line class="cls-7" x1="1089.49" y1="252.37" x2="1106.91" y2="222.2"/>
      <polyline class="cls-4" points="1108.49 219.46 1109.91 217.01 1108.49 214.55"/>
      <line class="cls-7" x1="1105.33" y1="209.07" x2="1087.91" y2="178.9"/>
    </g>
    <g>
      <polyline class="cls-4" points="936.33 171.25 934.91 173.71 932.08 173.71"/>
      <line class="cls-7" x1="925.74" y1="173.71" x2="890.91" y2="173.71"/>
      <polyline class="cls-4" points="887.75 173.71 884.91 173.71 883.49 171.25"/>
      <line class="cls-7" x1="880.33" y1="165.77" x2="862.91" y2="135.6"/>
      <polyline class="cls-4" points="861.33 132.86 859.91 130.4 861.33 127.95"/>
      <line class="cls-7" x1="864.49" y1="122.46" x2="881.91" y2="92.3"/>
      <polyline class="cls-4" points="883.49 89.56 884.91 87.1 887.75 87.1"/>
      <line class="cls-7" x1="894.08" y1="87.1" x2="928.91" y2="87.1"/>
      <polyline class="cls-4" points="932.08 87.1 934.91 87.1 936.33 89.56"/>
      <line class="cls-7" x1="939.49" y1="95.04" x2="956.91" y2="125.21"/>
      <polyline class="cls-4" points="958.49 127.95 959.91 130.4 958.49 132.86"/>
      <line class="cls-7" x1="955.33" y1="138.34" x2="937.91" y2="168.51"/>
    </g>
  </g>
  <g>
    <polygon class="cls-9" points="1004.91 686.94 964.91 686.94 944.91 721.59 964.91 756.23 1004.91 756.23 1024.91 721.59 1004.91 686.94"/>
    <polygon class="cls-4" points="944.91 721.59 904.91 721.59 884.91 686.94 904.91 652.3 944.91 652.3 964.91 686.94 944.91 721.59"/>
    <polygon class="cls-4" points="1064.91 721.59 1024.91 721.59 1004.91 686.94 1024.91 652.3 1064.91 652.3 1084.91 686.94 1064.91 721.59"/>
    <polygon class="cls-4" points="1004.91 617.66 964.91 617.66 944.91 652.3 964.91 686.94 1004.91 686.94 1024.91 652.3 1004.91 617.66"/>
    <polygon class="cls-4" points="1004.91 548.38 964.91 548.38 944.91 583.02 964.91 617.66 1004.91 617.66 1024.91 583.02 1004.91 548.38"/>
    <polygon class="cls-4" points="1064.91 583.02 1024.91 583.02 1004.91 617.66 1024.91 652.3 1064.91 652.3 1084.91 617.66 1064.91 583.02"/>
    <polygon class="cls-4" points="944.91 583.02 904.91 583.02 884.91 617.66 904.91 652.3 944.91 652.3 964.91 617.66 944.91 583.02"/>
  </g>
</svg>