<?xml version="1.0" encoding="UTF-8"?>
<svg id="Layer_2" data-name="Layer 2" xmlns="http://www.w3.org/2000/svg" width="2000" height="2000" viewBox="0 0 2000 2000">
  <defs>
    <style>
      .cls-1 {
        fill: #4b44a3;
      }

      .cls-1, .cls-2, .cls-3, .cls-4, .cls-5, .cls-6 {
        stroke-width: 0px;
      }

      .cls-2 {
        fill: #62b4c9;
      }

      .cls-3 {
        fill: #61da67;
      }

      .cls-4 {
        fill: #9bccd0;
      }

      .cls-5 {
        fill: #d4dce9;
      }

      .cls-6 {
        fill: #4d4e60;
      }
    </style>
  </defs>
  <path class="cls-2" d="M262.15,967.78c-42.82,29.27-89.27,52.79-136.35,74.38-42.7,19.58-97.9,34.29-92.31,92.61,2.31,24.15,13.37,46.46,20.79,69.56,16.53,51.42,17.39,111.94,56,149.7,46.4,45.38,124.48,35.29,179.73,69.36,56.98,35.13,77.77,108.98,128.82,152.27,43.97,37.28,105.59,47.31,163.02,42.34,48.75-4.22,99.45-19.99,130.95-57.43,22.32-26.53,32.84-62.64,28.26-97.01-4.58-34.37-24.19-66.46-52.69-86.22-27.19-18.86-64.16-29.48-76.59-60.15-9.93-24.5-.32-55.03-14.92-77.07-12.7-19.18-38.49-23.97-61.46-25.14-22.97-1.17-47.91-1.06-66.14-15.08-15.9-12.23-23.17-33.41-22.17-53.44.99-20.03,9.28-39.06,19.71-56.19,46.81-76.86,137.86-124.8,165.98-210.28,10.22-31.06,9.45-68.95-13.58-92.17-15.7-15.83-39.31-21.98-61.54-20.3-22.23,1.68-43.34,10.39-63.05,20.8-82.91,43.78-145.64,117.42-221.84,172.05-3.51,2.52-7.05,4.99-10.61,7.43Z"/>
  <path class="cls-5" d="M955.88,538.42c-24.86,19.36-31.51,64.01-22.63,93.47,9.72,32.23,35.76,62.38,28.06,95.16-7.01,29.81-39.23,46.78-52.3,74.47-8.96,18.98-7.69,42.44,3.26,60.34,13.31,21.75,38.03,33.39,56.46,51.01,18.05,17.26,30.04,40.75,33.43,65.49,4.59,33.5-5.62,70.3,10.92,99.79,12.75,22.72,39.57,35.24,65.63,35.49,26.05.25,51.23-10.25,72.98-24.59,25.5-16.82,47.84-39.9,58.58-68.5,10.74-28.6,8.32-63.08-10.73-86.96-12.28-15.39-30.06-25.24-44.67-38.42-14.61-13.19-26.64-32.78-21.48-51.77,5.76-21.22,30.12-31.67,52.05-33.3s44.43,2.48,65.71-3.03c34.87-9.03,59.96-46.3,55.21-82.01-4.75-35.71-38.71-65.11-74.74-64.71-13.15.15-26.07,3.77-39.23,4.03-13.15.27-27.64-3.79-34.62-14.94-8.74-13.97-2.31-31.98,2.95-47.6,5.26-15.62,7.85-35.83-5.18-45.91-17.43-13.49-41.09,4.78-62.85,8.3-17.38,2.81-34.74-4.46-50.2-12.87-15.46-8.41-30.65-18.3-47.97-21.46-15.89-2.89-28.7.81-38.62,8.53Z"/>
  <path class="cls-4" d="M1450.27,836.3c-18.92,3.62-38.77,2.46-56.99-3.8-26.83-9.22-50.65-28.83-78.98-30.21-27.96-1.36-54.13,15.54-82.12,15.65-13.11.05-26.01-3.61-39.12-3.84-48.65-.82-50.36,54.75-24.83,83.65,16.49,18.66,39.13,31.22,54.83,50.55,23.08,28.42,27.92,66.93,39.74,101.58,11.83,34.65,37.87,70.6,74.48,70.9,26.36.22,49.2-18.62,64.91-39.79,30.77-41.46,48.27-98.91,96.4-117.59,45.97-17.84,103.94,8.06,144.36-20.17,29.47-20.59,35.97-61.68,32.68-97.48-2.07-22.6-7.23-45.48-19.71-64.43s-33.31-33.43-56-33.81c-22.59-.38-43.22,12.76-59.99,27.9s-31.42,32.88-50.36,45.2c-11.91,7.74-25.35,13.02-39.29,15.69Z"/>
  <path class="cls-6" d="M1251.44,507.43c-11.98,13.23-23.96,26.45-35.94,39.68-18.96,20.93-47.92,43.89-53.43,73.24-2.19,11.65,1.09,25.12,10.9,31.78,16.39,11.13,37.77-1.84,57.39-4.58,51.9-7.26,89.9,58.77,142.31,58.32,33.03-.28,59.2-26.88,80.42-52.19,21.22-25.32,44.8-53.24,77.51-57.87,30.1-4.27,59.07,12.87,82.19,32.6,23.12,19.74,44,43.17,71.62,55.87,29.82,13.71,68.32,11.92,92.12-10.67,23.81-22.6,25.04-67.12-1.69-86.17-21.73-15.5-55.24-12.49-71.29-33.82-17.17-22.81-2.21-57.72-15.77-82.85-8.25-15.28-25.97-23.73-43.31-24.66-17.34-.93-34.39,4.6-50.29,11.57-14.72,6.45-29.08,14.27-44.84,17.39-15.76,3.12-33.77.65-44.87-10.97-11.12-11.65-12.71-29.07-15.88-44.85s-10.69-33.32-26.24-37.53c-12.69-3.44-25.91,3.59-35.82,12.24-9.91,8.65-18.36,19.29-29.98,25.46-19.95,10.6-44.81,5.85-65.99,13.71-17.39,6.45-30.55,20.69-43,34.44-12.04,13.29-24.09,26.59-36.13,39.88Z"/>
  <path class="cls-3" d="M1630.29,964.3c-27.01,4.09-56.81-3.33-84.88-1.41-81.75,5.58-125.74,86.9-127.7,161.54-1.1,41.92,12.3,84.62,39.63,116.44,28.33,32.97,69.19,52.43,110.19,66.89,71.18,25.12,147.29,38.03,222.52,31.76,39.75-3.31,79.95-12.32,113.56-33.81,33.61-21.49,59.87-56.99,62.96-96.76,3.5-44.95-21.72-86.57-32.5-130.35-15.3-62.16-1.22-128.45-14.54-191.06-4.75-22.34-13.38-44.57-29.33-60.91-24.01-24.6-62.51-32.13-95.57-22.72-33.07,9.4-60.56,33.97-78.08,63.55-18.75,31.67-29.6,71.82-62.08,89.11-7.7,4.1-15.81,6.47-24.18,7.74Z"/>
  <path class="cls-1" d="M781.61,728c-46.1,7.21-89.62,32.86-113.32,73.43-31.8,54.44-29.74,122.8-66.67,174.92-29.33,41.4-78.7,64.08-112.06,102.3-14.43,16.52-25.9,36.57-27.84,58.42-1.94,21.85,7.24,45.49,26.14,56.63,25.18,14.86,57.79,4.28,86.05,11.77,25.97,6.89,46.68,30.44,50.19,57.08,2.66,20.19-3.05,43.33,9.69,59.22,14.75,18.39,44.04,14.08,65.2,3.69,35.82-17.59,66.97-52.23,65.91-92.12-.71-26.81-15.42-50.89-25.48-75.75s-14.77-55.76,2.17-76.56c17.54-21.55,50.44-22.39,77.25-15.07,26.8,7.32,52.33,20.93,80.09,22.04,33.92,1.36,67.83-18.06,83.82-48,15.99-29.94,13.28-68.92-6.7-96.36-26.16-35.91-79.13-54.77-85.48-98.75-3.72-25.75,10.96-52.7,2.58-77.32-8.08-23.72-34.64-35.83-59.4-39.71-17.13-2.69-34.81-2.58-52.13.13Z"/>
</svg>