<?xml version="1.0" encoding="utf-8"?>
<svg version="1.1" id="Layer_1" xmlns="http://www.w3.org/2000/svg" xmlns:xlink="http://www.w3.org/1999/xlink" x="0px" y="0px"
	 viewBox="0 0 1263.6 1846.6" style="enable-background:new 0 0 1263.6 1846.6;" xml:space="preserve">
<style type="text/css">
	.st0{fill:none;stroke:#E8E8E8;strokeWidth:1.42;stroke-miterlimit:10;stroke-dasharray:0,0,11.83,11.83;}
	.st1{fill:none;stroke:#E8E8E8;strokeWidth:1.42;stroke-miterlimit:10;}
	.st2{fill:none;stroke:#3C55A5;strokeWidth:5;stroke-miterlimit:10;}
	.st3{fill:none;stroke:#AA1E23;strokeWidth:5;stroke-miterlimit:10;}
	.st4{fill:none;stroke:#00A651;strokeWidth:5.67;stroke-miterlimit:10;}
	.st5{fill:none;stroke:#E8E8E8;strokeWidth:1.42;stroke-miterlimit:10;stroke-dasharray:0,0,11.89,11.89;}
	.st6{fill:none;stroke:#E8E8E8;strokeWidth:1.42;stroke-miterlimit:10;stroke-dasharray:0,0,12.54,12.54;}
	.st7{fill:none;stroke:#E8E8E8;strokeWidth:1.42;stroke-miterlimit:10;stroke-dasharray:0,0,11.49,11.49;}
	.st8{fill:#AA1E23;}
	.st9{fill:#3C55A5;}
	.st10{fill:#00A651;}
	.st11{fill:#E8E8E8;}
</style>
<line class="st0" x1="271.5" y1="661" x2="924.4" y2="661"/>
<line class="st0" x1="339.2" y1="1169.1" x2="992.1" y2="1169.1"/>
<g>
	<g>
		<line class="st1" x1="1059.8" y1="661" x2="1127.5" y2="700.1"/>
		<line class="st1" x1="1127.5" y1="778.2" x2="1127.5" y2="700.1"/>
		<line class="st1" x1="992.1" y1="778.2" x2="1059.8" y2="817.3"/>
		<line class="st1" x1="1127.5" y1="778.2" x2="1059.8" y2="817.3"/>
		<line class="st1" x1="992.1" y1="778.2" x2="992.1" y2="700.1"/>
		<line class="st1" x1="1059.8" y1="661" x2="992.1" y2="700.1"/>
	</g>
	<g>
		<line class="st1" x1="924.4" y1="661" x2="856.7" y2="700.1"/>
		<line class="st1" x1="856.7" y1="778.2" x2="856.7" y2="700.1"/>
		<line class="st1" x1="992.1" y1="778.2" x2="924.4" y2="817.3"/>
		<line class="st1" x1="856.7" y1="778.2" x2="924.4" y2="817.3"/>
		<line class="st1" x1="992.1" y1="778.2" x2="992.1" y2="700.1"/>
		<line class="st1" x1="924.4" y1="661" x2="992.1" y2="700.1"/>
	</g>
	<g>
		<line class="st1" x1="856.7" y1="1012.8" x2="924.4" y2="1051.8"/>
		<line class="st1" x1="992.1" y1="1012.8" x2="924.4" y2="1051.8"/>
		<line class="st1" x1="924.4" y1="895.5" x2="992.1" y2="934.6"/>
		<line class="st1" x1="992.1" y1="1012.8" x2="992.1" y2="934.6"/>
		<line class="st1" x1="924.4" y1="895.5" x2="856.7" y2="934.6"/>
		<line class="st1" x1="856.7" y1="1012.8" x2="856.7" y2="934.6"/>
	</g>
	<g>
		<line class="st1" x1="789" y1="895.5" x2="789" y2="817.3"/>
		<line class="st1" x1="856.7" y1="778.2" x2="789" y2="817.3"/>
		<line class="st1" x1="924.4" y1="895.5" x2="924.4" y2="817.3"/>
		<line class="st1" x1="856.7" y1="778.2" x2="924.4" y2="817.3"/>
		<line class="st1" x1="924.4" y1="895.5" x2="856.7" y2="934.6"/>
		<line class="st1" x1="789" y1="895.5" x2="856.7" y2="934.6"/>
	</g>
	<g>
		<line class="st1" x1="721.3" y1="1012.8" x2="789" y2="1051.8"/>
		<line class="st1" x1="856.7" y1="1012.8" x2="789" y2="1051.8"/>
		<line class="st1" x1="789" y1="895.5" x2="856.7" y2="934.6"/>
		<line class="st1" x1="856.7" y1="1012.8" x2="856.7" y2="934.6"/>
		<line class="st1" x1="789" y1="895.5" x2="721.3" y2="934.6"/>
		<line class="st1" x1="721.3" y1="1012.8" x2="721.3" y2="934.6"/>
	</g>
	<g>
		<line class="st1" x1="789" y1="1130" x2="856.7" y2="1169.1"/>
		<line class="st1" x1="924.4" y1="1130" x2="856.7" y2="1169.1"/>
		<line class="st1" x1="856.7" y1="1012.8" x2="924.4" y2="1051.8"/>
		<line class="st1" x1="924.4" y1="1130" x2="924.4" y2="1051.8"/>
		<line class="st1" x1="856.7" y1="1012.8" x2="789" y2="1051.8"/>
		<line class="st1" x1="789" y1="1130" x2="789" y2="1051.8"/>
	</g>
	<g>
		<line class="st1" x1="992.1" y1="1012.8" x2="1059.8" y2="1051.8"/>
		<line class="st1" x1="1127.5" y1="1012.8" x2="1059.8" y2="1051.8"/>
		<line class="st1" x1="1059.8" y1="895.5" x2="1127.5" y2="934.6"/>
		<line class="st1" x1="1127.5" y1="1012.8" x2="1127.5" y2="934.6"/>
		<line class="st1" x1="1059.8" y1="895.5" x2="992.1" y2="934.6"/>
		<line class="st1" x1="992.1" y1="1012.8" x2="992.1" y2="934.6"/>
	</g>
	<g>
		<line class="st1" x1="1127.5" y1="1012.8" x2="1195.2" y2="1051.8"/>
		<line class="st1" x1="1262.9" y1="1012.8" x2="1195.2" y2="1051.8"/>
		<line class="st1" x1="1195.2" y1="895.5" x2="1262.9" y2="934.6"/>
		<line class="st1" x1="1262.9" y1="1012.8" x2="1262.9" y2="934.6"/>
		<line class="st1" x1="1195.2" y1="895.5" x2="1127.5" y2="934.6"/>
		<line class="st1" x1="1127.5" y1="1012.8" x2="1127.5" y2="934.6"/>
	</g>
	<g>
		<line class="st1" x1="924.4" y1="895.5" x2="992.1" y2="934.6"/>
		<line class="st1" x1="1059.8" y1="895.5" x2="992.1" y2="934.6"/>
		<line class="st1" x1="992.1" y1="778.2" x2="1059.8" y2="817.3"/>
		<line class="st1" x1="1059.8" y1="895.5" x2="1059.8" y2="817.3"/>
		<line class="st1" x1="992.1" y1="778.2" x2="924.4" y2="817.3"/>
		<line class="st1" x1="924.4" y1="895.5" x2="924.4" y2="817.3"/>
	</g>
	<g>
		<line class="st1" x1="1059.8" y1="895.5" x2="1127.5" y2="934.6"/>
		<line class="st1" x1="1195.2" y1="895.5" x2="1127.5" y2="934.6"/>
		<line class="st1" x1="1127.5" y1="778.2" x2="1195.2" y2="817.3"/>
		<line class="st1" x1="1195.2" y1="895.5" x2="1195.2" y2="817.3"/>
		<line class="st1" x1="1127.5" y1="778.2" x2="1059.8" y2="817.3"/>
		<line class="st1" x1="1059.8" y1="895.5" x2="1059.8" y2="817.3"/>
	</g>
	<g>
		<line class="st1" x1="924.4" y1="1130" x2="992.1" y2="1169.1"/>
		<line class="st1" x1="1059.8" y1="1130" x2="992.1" y2="1169.1"/>
		<line class="st1" x1="992.1" y1="1012.8" x2="1059.8" y2="1051.8"/>
		<line class="st1" x1="1059.8" y1="1130" x2="1059.8" y2="1051.8"/>
		<line class="st1" x1="992.1" y1="1012.8" x2="924.4" y2="1051.8"/>
		<line class="st1" x1="924.4" y1="1130" x2="924.4" y2="1051.8"/>
	</g>
	<g>
		<line class="st1" x1="653.6" y1="895.5" x2="653.6" y2="817.3"/>
		<line class="st1" x1="721.3" y1="778.2" x2="653.6" y2="817.3"/>
		<line class="st1" x1="789" y1="895.5" x2="789" y2="817.3"/>
		<line class="st1" x1="721.3" y1="778.2" x2="789" y2="817.3"/>
		<line class="st1" x1="789" y1="895.5" x2="721.3" y2="934.6"/>
		<line class="st1" x1="653.6" y1="895.5" x2="721.3" y2="934.6"/>
	</g>
</g>
<rect x="711.8" y="186.8" class="st2" width="19" height="19"/>
<rect x="914.9" y="66.8" class="st2" width="19" height="19"/>
<rect x="847.2" y="423.3" class="st2" width="19" height="19"/>
<rect x="982.6" y="183.6" class="st2" width="19" height="19"/>
<rect x="982.6" y="423.3" class="st3" width="19" height="19"/>
<rect x="1118" y="183.6" class="st2" width="19" height="19"/>
<rect x="1050.3" y="66.8" class="st3" width="19" height="19"/>
<rect x="1050.3" y="301.3" class="st3" width="19" height="19"/>
<rect x="779.5" y="301.3" class="st3" width="19" height="19"/>
<rect x="914.9" y="301.3" class="st4" width="19" height="19"/>
<rect x="847.2" y="186.8" class="st3" width="19" height="19"/>
<rect x="1185.7" y="301.3" class="st2" width="19" height="19"/>
<g>
	<line class="st1" x1="924.4" y1="76.2" x2="918.4" y2="76.2"/>
	<line class="st5" x1="906.5" y1="76.2" x2="436.8" y2="76.2"/>
	<line class="st1" x1="430.9" y1="76.2" x2="424.9" y2="76.2"/>
</g>
<g>
	<line class="st1" x1="717" y1="196.2" x2="711" y2="196.2"/>
	<line class="st6" x1="698.4" y1="196.2" x2="504.1" y2="196.2"/>
	<line class="st1" x1="497.8" y1="196.2" x2="491.8" y2="196.2"/>
</g>
<g>
	<line class="st1" x1="786.2" y1="310.8" x2="780.2" y2="310.8"/>
	<line class="st7" x1="768.8" y1="310.8" x2="567.7" y2="310.8"/>
	<line class="st1" x1="562" y1="310.8" x2="556" y2="310.8"/>
</g>
<g>
	<line class="st1" x1="855.2" y1="432.8" x2="849.2" y2="432.8"/>
	<line class="st0" x1="837.3" y1="432.8" x2="369.9" y2="432.8"/>
	<line class="st1" x1="364" y1="432.8" x2="358" y2="432.8"/>
</g>
<g>
	<g>
		<line class="st1" x1="406.9" y1="661" x2="474.6" y2="700.1"/>
		<line class="st1" x1="474.6" y1="778.2" x2="474.6" y2="700.1"/>
		<line class="st1" x1="339.2" y1="778.2" x2="406.9" y2="817.3"/>
		<line class="st1" x1="474.6" y1="778.2" x2="406.9" y2="817.3"/>
		<line class="st1" x1="339.2" y1="778.2" x2="339.2" y2="700.1"/>
		<line class="st1" x1="406.9" y1="661" x2="339.2" y2="700.1"/>
	</g>
	<g>
		<line class="st1" x1="271.5" y1="661" x2="203.8" y2="700.1"/>
		<line class="st1" x1="203.8" y1="778.2" x2="203.8" y2="700.1"/>
		<line class="st1" x1="339.2" y1="778.2" x2="271.5" y2="817.3"/>
		<line class="st1" x1="203.8" y1="778.2" x2="271.5" y2="817.3"/>
		<line class="st1" x1="339.2" y1="778.2" x2="339.2" y2="700.1"/>
		<line class="st1" x1="271.5" y1="661" x2="339.2" y2="700.1"/>
	</g>
	<g>
		<line class="st1" x1="203.8" y1="1012.8" x2="271.5" y2="1051.8"/>
		<line class="st1" x1="339.2" y1="1012.8" x2="271.5" y2="1051.8"/>
		<line class="st1" x1="271.5" y1="895.5" x2="339.2" y2="934.6"/>
		<line class="st1" x1="339.2" y1="1012.8" x2="339.2" y2="934.6"/>
		<line class="st1" x1="271.5" y1="895.5" x2="203.8" y2="934.6"/>
		<line class="st1" x1="203.8" y1="1012.8" x2="203.8" y2="934.6"/>
	</g>
	<g>
		<line class="st1" x1="136.1" y1="895.5" x2="136.1" y2="817.3"/>
		<line class="st1" x1="203.8" y1="778.2" x2="136.1" y2="817.3"/>
		<line class="st1" x1="271.5" y1="895.5" x2="271.5" y2="817.3"/>
		<line class="st1" x1="203.8" y1="778.2" x2="271.5" y2="817.3"/>
		<line class="st1" x1="271.5" y1="895.5" x2="203.8" y2="934.6"/>
		<line class="st1" x1="136.1" y1="895.5" x2="203.8" y2="934.6"/>
	</g>
	<g>
		<line class="st1" x1="68.4" y1="1012.8" x2="136.1" y2="1051.8"/>
		<line class="st1" x1="203.8" y1="1012.8" x2="136.1" y2="1051.8"/>
		<line class="st1" x1="136.1" y1="895.5" x2="203.8" y2="934.6"/>
		<line class="st1" x1="203.8" y1="1012.8" x2="203.8" y2="934.6"/>
		<line class="st1" x1="136.1" y1="895.5" x2="68.4" y2="934.6"/>
		<line class="st1" x1="68.4" y1="1012.8" x2="68.4" y2="934.6"/>
	</g>
	<g>
		<line class="st1" x1="136.1" y1="1130" x2="203.8" y2="1169.1"/>
		<line class="st1" x1="271.5" y1="1130" x2="203.8" y2="1169.1"/>
		<line class="st1" x1="203.8" y1="1012.8" x2="271.5" y2="1051.8"/>
		<line class="st1" x1="271.5" y1="1130" x2="271.5" y2="1051.8"/>
		<line class="st1" x1="203.8" y1="1012.8" x2="136.1" y2="1051.8"/>
		<line class="st1" x1="136.1" y1="1130" x2="136.1" y2="1051.8"/>
	</g>
	<g>
		<line class="st1" x1="339.2" y1="1012.8" x2="406.9" y2="1051.8"/>
		<line class="st1" x1="474.6" y1="1012.8" x2="406.9" y2="1051.8"/>
		<line class="st1" x1="406.9" y1="895.5" x2="474.6" y2="934.6"/>
		<line class="st1" x1="474.6" y1="1012.8" x2="474.6" y2="934.6"/>
		<line class="st1" x1="406.9" y1="895.5" x2="339.2" y2="934.6"/>
		<line class="st1" x1="339.2" y1="1012.8" x2="339.2" y2="934.6"/>
	</g>
	<g>
		<line class="st1" x1="474.6" y1="1012.8" x2="542.3" y2="1051.8"/>
		<line class="st1" x1="610" y1="1012.8" x2="542.3" y2="1051.8"/>
		<line class="st1" x1="542.3" y1="895.5" x2="610" y2="934.6"/>
		<line class="st1" x1="610" y1="1012.8" x2="610" y2="934.6"/>
		<line class="st1" x1="542.3" y1="895.5" x2="474.6" y2="934.6"/>
		<line class="st1" x1="474.6" y1="1012.8" x2="474.6" y2="934.6"/>
	</g>
	<g>
		<line class="st1" x1="271.5" y1="895.5" x2="339.2" y2="934.6"/>
		<line class="st1" x1="406.9" y1="895.5" x2="339.2" y2="934.6"/>
		<line class="st1" x1="339.2" y1="778.2" x2="406.9" y2="817.3"/>
		<line class="st1" x1="406.9" y1="895.5" x2="406.9" y2="817.3"/>
		<line class="st1" x1="339.2" y1="778.2" x2="271.5" y2="817.3"/>
		<line class="st1" x1="271.5" y1="895.5" x2="271.5" y2="817.3"/>
	</g>
	<g>
		<line class="st1" x1="406.9" y1="895.5" x2="474.6" y2="934.6"/>
		<line class="st1" x1="542.3" y1="895.5" x2="474.6" y2="934.6"/>
		<line class="st1" x1="474.6" y1="778.2" x2="542.3" y2="817.3"/>
		<line class="st1" x1="542.3" y1="895.5" x2="542.3" y2="817.3"/>
		<line class="st1" x1="474.6" y1="778.2" x2="406.9" y2="817.3"/>
		<line class="st1" x1="406.9" y1="895.5" x2="406.9" y2="817.3"/>
	</g>
	<g>
		<line class="st1" x1="271.5" y1="1130" x2="339.2" y2="1169.1"/>
		<line class="st1" x1="406.9" y1="1130" x2="339.2" y2="1169.1"/>
		<line class="st1" x1="339.2" y1="1012.8" x2="406.9" y2="1051.8"/>
		<line class="st1" x1="406.9" y1="1130" x2="406.9" y2="1051.8"/>
		<line class="st1" x1="339.2" y1="1012.8" x2="271.5" y2="1051.8"/>
		<line class="st1" x1="271.5" y1="1130" x2="271.5" y2="1051.8"/>
	</g>
	<g>
		<line class="st1" x1="0.7" y1="895.5" x2="0.7" y2="817.3"/>
		<line class="st1" x1="68.4" y1="778.2" x2="0.7" y2="817.3"/>
		<line class="st1" x1="136.1" y1="895.5" x2="136.1" y2="817.3"/>
		<line class="st1" x1="68.4" y1="778.2" x2="136.1" y2="817.3"/>
		<line class="st1" x1="136.1" y1="895.5" x2="68.4" y2="934.6"/>
		<line class="st1" x1="0.7" y1="895.5" x2="68.4" y2="934.6"/>
	</g>
</g>
<line class="st0" x1="68.4" y1="1012.8" x2="68.4" y2="1455.1"/>
<line class="st0" x1="136.1" y1="1130" x2="136.1" y2="1494.2"/>
<line class="st0" x1="203.8" y1="1169.1" x2="203.8" y2="1372.6"/>
<line class="st0" x1="271.5" y1="1130" x2="271.5" y2="1337.9"/>
<line class="st0" x1="406.9" y1="1130" x2="406.9" y2="1337.9"/>
<line class="st0" x1="339.2" y1="1169.1" x2="339.2" y2="1371.4"/>
<line class="st0" x1="474.6" y1="1012.8" x2="474.6" y2="1371.4"/>
<line class="st0" x1="542.3" y1="1051.8" x2="542.3" y2="1494.2"/>
<g>
	<g>
		<line class="st0" x1="1059.8" y1="0.1" x2="1127.5" y2="39.2"/>
		<line class="st0" x1="1127.5" y1="117.4" x2="1127.5" y2="39.2"/>
		<line class="st0" x1="992.1" y1="117.4" x2="1059.8" y2="156.5"/>
		<line class="st0" x1="1127.5" y1="117.4" x2="1059.8" y2="156.5"/>
		<line class="st0" x1="992.1" y1="117.4" x2="992.1" y2="39.2"/>
		<line class="st0" x1="1059.8" y1="0.1" x2="992.1" y2="39.2"/>
	</g>
	<g>
		<line class="st0" x1="924.4" y1="0.1" x2="856.7" y2="39.2"/>
		<line class="st0" x1="856.7" y1="117.4" x2="856.7" y2="39.2"/>
		<line class="st0" x1="992.1" y1="117.4" x2="924.4" y2="156.5"/>
		<line class="st0" x1="856.7" y1="117.4" x2="924.4" y2="156.5"/>
		<line class="st0" x1="992.1" y1="117.4" x2="992.1" y2="39.2"/>
		<line class="st0" x1="924.4" y1="0.1" x2="992.1" y2="39.2"/>
	</g>
	<g>
		<line class="st0" x1="856.7" y1="351.9" x2="924.4" y2="391"/>
		<line class="st0" x1="992.1" y1="351.9" x2="924.4" y2="391"/>
		<line class="st0" x1="924.4" y1="234.6" x2="992.1" y2="273.7"/>
		<line class="st0" x1="992.1" y1="351.9" x2="992.1" y2="273.7"/>
		<line class="st0" x1="924.4" y1="234.6" x2="856.7" y2="273.7"/>
		<line class="st0" x1="856.7" y1="351.9" x2="856.7" y2="273.7"/>
	</g>
	<g>
		<line class="st0" x1="789" y1="234.6" x2="789" y2="156.5"/>
		<line class="st0" x1="856.7" y1="117.4" x2="789" y2="156.5"/>
		<line class="st0" x1="924.4" y1="234.6" x2="924.4" y2="156.5"/>
		<line class="st0" x1="856.7" y1="117.4" x2="924.4" y2="156.5"/>
		<line class="st0" x1="924.4" y1="234.6" x2="856.7" y2="273.7"/>
		<line class="st0" x1="789" y1="234.6" x2="856.7" y2="273.7"/>
	</g>
	<g>
		<line class="st0" x1="721.3" y1="351.9" x2="789" y2="391"/>
		<line class="st0" x1="856.7" y1="351.9" x2="789" y2="391"/>
		<line class="st0" x1="789" y1="234.6" x2="856.7" y2="273.7"/>
		<line class="st0" x1="856.7" y1="351.9" x2="856.7" y2="273.7"/>
		<line class="st0" x1="789" y1="234.6" x2="721.3" y2="273.7"/>
		<line class="st0" x1="721.3" y1="351.9" x2="721.3" y2="273.7"/>
	</g>
	<g>
		<line class="st0" x1="789" y1="469.1" x2="856.7" y2="508.2"/>
		<line class="st0" x1="924.4" y1="469.1" x2="856.7" y2="508.2"/>
		<line class="st0" x1="856.7" y1="351.9" x2="924.4" y2="391"/>
		<line class="st0" x1="924.4" y1="469.1" x2="924.4" y2="391"/>
		<line class="st0" x1="856.7" y1="351.9" x2="789" y2="391"/>
		<line class="st0" x1="789" y1="469.1" x2="789" y2="391"/>
	</g>
	<g>
		<line class="st0" x1="992.1" y1="351.9" x2="1059.8" y2="391"/>
		<line class="st0" x1="1127.5" y1="351.9" x2="1059.8" y2="391"/>
		<line class="st0" x1="1059.8" y1="234.6" x2="1127.5" y2="273.7"/>
		<line class="st0" x1="1127.5" y1="351.9" x2="1127.5" y2="273.7"/>
		<line class="st0" x1="1059.8" y1="234.6" x2="992.1" y2="273.7"/>
		<line class="st0" x1="992.1" y1="351.9" x2="992.1" y2="273.7"/>
	</g>
	<g>
		<line class="st0" x1="1127.5" y1="351.9" x2="1195.2" y2="391"/>
		<line class="st0" x1="1262.9" y1="351.9" x2="1195.2" y2="391"/>
		<line class="st0" x1="1195.2" y1="234.6" x2="1262.9" y2="273.7"/>
		<line class="st0" x1="1262.9" y1="351.9" x2="1262.9" y2="273.7"/>
		<line class="st0" x1="1195.2" y1="234.6" x2="1127.5" y2="273.7"/>
		<line class="st0" x1="1127.5" y1="351.9" x2="1127.5" y2="273.7"/>
	</g>
	<g>
		<line class="st0" x1="924.4" y1="234.6" x2="992.1" y2="273.7"/>
		<line class="st0" x1="1059.8" y1="234.6" x2="992.1" y2="273.7"/>
		<line class="st0" x1="992.1" y1="117.4" x2="1059.8" y2="156.5"/>
		<line class="st0" x1="1059.8" y1="234.6" x2="1059.8" y2="156.5"/>
		<line class="st0" x1="992.1" y1="117.4" x2="924.4" y2="156.5"/>
		<line class="st0" x1="924.4" y1="234.6" x2="924.4" y2="156.5"/>
	</g>
	<g>
		<line class="st0" x1="1059.8" y1="234.6" x2="1127.5" y2="273.7"/>
		<line class="st0" x1="1195.2" y1="234.6" x2="1127.5" y2="273.7"/>
		<line class="st0" x1="1127.5" y1="117.4" x2="1195.2" y2="156.5"/>
		<line class="st0" x1="1195.2" y1="234.6" x2="1195.2" y2="156.5"/>
		<line class="st0" x1="1127.5" y1="117.4" x2="1059.8" y2="156.5"/>
		<line class="st0" x1="1059.8" y1="234.6" x2="1059.8" y2="156.5"/>
	</g>
	<g>
		<line class="st0" x1="924.4" y1="469.1" x2="992.1" y2="508.2"/>
		<line class="st0" x1="1059.8" y1="469.1" x2="992.1" y2="508.2"/>
		<line class="st0" x1="992.1" y1="351.9" x2="1059.8" y2="391"/>
		<line class="st0" x1="1059.8" y1="469.1" x2="1059.8" y2="391"/>
		<line class="st0" x1="992.1" y1="351.9" x2="924.4" y2="391"/>
		<line class="st0" x1="924.4" y1="469.1" x2="924.4" y2="391"/>
	</g>
	<g>
		<line class="st0" x1="653.6" y1="234.6" x2="653.6" y2="156.5"/>
		<line class="st0" x1="721.3" y1="117.4" x2="653.6" y2="156.5"/>
		<line class="st0" x1="789" y1="234.6" x2="789" y2="156.5"/>
		<line class="st0" x1="721.3" y1="117.4" x2="789" y2="156.5"/>
		<line class="st0" x1="789" y1="234.6" x2="721.3" y2="273.7"/>
		<line class="st0" x1="653.6" y1="234.6" x2="721.3" y2="273.7"/>
	</g>
</g>
<g>
	<line class="st0" x1="721.3" y1="777" x2="721.3" y2="196.2"/>
	<line class="st0" x1="789" y1="816.2" x2="789" y2="310.8"/>
	<line class="st0" x1="856.7" y1="700.1" x2="856.7" y2="432.8"/>
	<line class="st0" x1="924.4" y1="661" x2="924.4" y2="310.8"/>
	<line class="st0" x1="1059.8" y1="661" x2="1059.8" y2="310.8"/>
	<line class="st0" x1="992.1" y1="700.1" x2="992.1" y2="432.8"/>
	<line class="st0" x1="1127.5" y1="700.1" x2="1127.5" y2="193.1"/>
	<line class="st0" x1="1195.2" y1="816.2" x2="1195.2" y2="310.8"/>
</g>
<g>
	<g>
		<line class="st1" x1="406.9" y1="1337.9" x2="474.6" y2="1376.9"/>
		<line class="st1" x1="474.6" y1="1455.1" x2="474.6" y2="1376.9"/>
		<line class="st1" x1="339.2" y1="1455.1" x2="406.9" y2="1494.2"/>
		<line class="st1" x1="474.6" y1="1455.1" x2="406.9" y2="1494.2"/>
		<line class="st1" x1="339.2" y1="1455.1" x2="339.2" y2="1376.9"/>
		<line class="st1" x1="406.9" y1="1337.9" x2="339.2" y2="1376.9"/>
	</g>
	<g>
		<line class="st1" x1="271.5" y1="1337.9" x2="203.8" y2="1376.9"/>
		<line class="st1" x1="203.8" y1="1455.1" x2="203.8" y2="1376.9"/>
		<line class="st1" x1="339.2" y1="1455.1" x2="271.5" y2="1494.2"/>
		<line class="st1" x1="203.8" y1="1455.1" x2="271.5" y2="1494.2"/>
		<line class="st1" x1="339.2" y1="1455.1" x2="339.2" y2="1376.9"/>
		<line class="st1" x1="271.5" y1="1337.9" x2="339.2" y2="1376.9"/>
	</g>
	<g>
		<line class="st1" x1="203.8" y1="1689.6" x2="271.5" y2="1728.7"/>
		<line class="st1" x1="339.2" y1="1689.6" x2="271.5" y2="1728.7"/>
		<line class="st1" x1="271.5" y1="1572.4" x2="339.2" y2="1611.5"/>
		<line class="st1" x1="339.2" y1="1689.6" x2="339.2" y2="1611.5"/>
		<line class="st1" x1="271.5" y1="1572.4" x2="203.8" y2="1611.5"/>
		<line class="st1" x1="203.8" y1="1689.6" x2="203.8" y2="1611.5"/>
	</g>
	<g>
		<line class="st1" x1="136.1" y1="1572.4" x2="136.1" y2="1494.2"/>
		<line class="st1" x1="203.8" y1="1455.1" x2="136.1" y2="1494.2"/>
		<line class="st1" x1="271.5" y1="1572.4" x2="271.5" y2="1494.2"/>
		<line class="st1" x1="203.8" y1="1455.1" x2="271.5" y2="1494.2"/>
		<line class="st1" x1="271.5" y1="1572.4" x2="203.8" y2="1611.5"/>
		<line class="st1" x1="136.1" y1="1572.4" x2="203.8" y2="1611.5"/>
	</g>
	<g>
		<line class="st1" x1="68.4" y1="1689.6" x2="136.1" y2="1728.7"/>
		<line class="st1" x1="203.8" y1="1689.6" x2="136.1" y2="1728.7"/>
		<line class="st1" x1="136.1" y1="1572.4" x2="203.8" y2="1611.5"/>
		<line class="st1" x1="203.8" y1="1689.6" x2="203.8" y2="1611.5"/>
		<line class="st1" x1="136.1" y1="1572.4" x2="68.4" y2="1611.5"/>
		<line class="st1" x1="68.4" y1="1689.6" x2="68.4" y2="1611.5"/>
	</g>
	<g>
		<line class="st1" x1="136.1" y1="1806.9" x2="203.8" y2="1846"/>
		<line class="st1" x1="271.5" y1="1806.9" x2="203.8" y2="1846"/>
		<line class="st1" x1="203.8" y1="1689.6" x2="271.5" y2="1728.7"/>
		<line class="st1" x1="271.5" y1="1806.9" x2="271.5" y2="1728.7"/>
		<line class="st1" x1="203.8" y1="1689.6" x2="136.1" y2="1728.7"/>
		<line class="st1" x1="136.1" y1="1806.9" x2="136.1" y2="1728.7"/>
	</g>
	<g>
		<line class="st1" x1="339.2" y1="1689.6" x2="406.9" y2="1728.7"/>
		<line class="st1" x1="474.6" y1="1689.6" x2="406.9" y2="1728.7"/>
		<line class="st1" x1="406.9" y1="1572.4" x2="474.6" y2="1611.5"/>
		<line class="st1" x1="474.6" y1="1689.6" x2="474.6" y2="1611.5"/>
		<line class="st1" x1="406.9" y1="1572.4" x2="339.2" y2="1611.5"/>
		<line class="st1" x1="339.2" y1="1689.6" x2="339.2" y2="1611.5"/>
	</g>
	<g>
		<line class="st1" x1="474.6" y1="1689.6" x2="542.3" y2="1728.7"/>
		<line class="st1" x1="610" y1="1689.6" x2="542.3" y2="1728.7"/>
		<line class="st1" x1="542.3" y1="1572.4" x2="610" y2="1611.5"/>
		<line class="st1" x1="610" y1="1689.6" x2="610" y2="1611.5"/>
		<line class="st1" x1="542.3" y1="1572.4" x2="474.6" y2="1611.5"/>
		<line class="st1" x1="474.6" y1="1689.6" x2="474.6" y2="1611.5"/>
	</g>
	<g>
		<line class="st1" x1="271.5" y1="1572.4" x2="339.2" y2="1611.5"/>
		<line class="st1" x1="406.9" y1="1572.4" x2="339.2" y2="1611.5"/>
		<line class="st1" x1="339.2" y1="1455.1" x2="406.9" y2="1494.2"/>
		<line class="st1" x1="406.9" y1="1572.4" x2="406.9" y2="1494.2"/>
		<line class="st1" x1="339.2" y1="1455.1" x2="271.5" y2="1494.2"/>
		<line class="st1" x1="271.5" y1="1572.4" x2="271.5" y2="1494.2"/>
	</g>
	<g>
		<line class="st1" x1="406.9" y1="1572.4" x2="474.6" y2="1611.5"/>
		<line class="st1" x1="542.3" y1="1572.4" x2="474.6" y2="1611.5"/>
		<line class="st1" x1="474.6" y1="1455.1" x2="542.3" y2="1494.2"/>
		<line class="st1" x1="542.3" y1="1572.4" x2="542.3" y2="1494.2"/>
		<line class="st1" x1="474.6" y1="1455.1" x2="406.9" y2="1494.2"/>
		<line class="st1" x1="406.9" y1="1572.4" x2="406.9" y2="1494.2"/>
	</g>
	<g>
		<line class="st1" x1="271.5" y1="1806.9" x2="339.2" y2="1846"/>
		<line class="st1" x1="406.9" y1="1806.9" x2="339.2" y2="1846"/>
		<line class="st1" x1="339.2" y1="1689.6" x2="406.9" y2="1728.7"/>
		<line class="st1" x1="406.9" y1="1806.9" x2="406.9" y2="1728.7"/>
		<line class="st1" x1="339.2" y1="1689.6" x2="271.5" y2="1728.7"/>
		<line class="st1" x1="271.5" y1="1806.9" x2="271.5" y2="1728.7"/>
	</g>
	<g>
		<line class="st1" x1="0.7" y1="1572.4" x2="0.7" y2="1494.2"/>
		<line class="st1" x1="68.4" y1="1455.1" x2="0.7" y2="1494.2"/>
		<line class="st1" x1="136.1" y1="1572.4" x2="136.1" y2="1494.2"/>
		<line class="st1" x1="68.4" y1="1455.1" x2="136.1" y2="1494.2"/>
		<line class="st1" x1="136.1" y1="1572.4" x2="68.4" y2="1611.5"/>
		<line class="st1" x1="0.7" y1="1572.4" x2="68.4" y2="1611.5"/>
	</g>
</g>
<rect x="409.5" y="64.5" class="st8" width="23.5" height="23.5"/>
<rect x="268.4" y="64.5" class="st8" width="23.5" height="23.5"/>
<rect x="480" y="184.5" class="st9" width="23.5" height="23.5"/>
<rect x="197.8" y="184.5" class="st9" width="23.5" height="23.5"/>
<rect x="56.7" y="184.5" class="st9" width="23.5" height="23.5"/>
<rect x="338.9" y="184.5" class="st9" width="23.5" height="23.5"/>
<rect x="550.6" y="299" class="st9" width="23.5" height="23.5"/>
<rect x="409.5" y="299" class="st9" width="23.5" height="23.5"/>
<rect x="268.4" y="299" class="st10" width="23.5" height="23.5"/>
<rect x="127.2" y="299" class="st8" width="23.5" height="23.5"/>
<rect x="338.9" y="421" class="st8" width="23.5" height="23.5"/>
<rect x="197.8" y="421" class="st8" width="23.5" height="23.5"/>
<circle class="st11" cx="271.5" cy="739.2" r="17.2"/>
<circle class="st11" cx="406.9" cy="739.2" r="17.2"/>
<circle class="st11" cx="203.8" cy="1090.9" r="17.2"/>
<circle class="st11" cx="339.2" cy="1090.9" r="17.2"/>
<circle class="st11" cx="339.2" cy="856.4" r="17.2"/>
<circle class="st11" cx="474.6" cy="856.4" r="17.2"/>
<circle class="st11" cx="68.4" cy="856.4" r="17.2"/>
<circle class="st11" cx="203.8" cy="856.4" r="17.2"/>
<circle class="st11" cx="406.9" cy="973.7" r="17.2"/>
<circle class="st11" cx="542.3" cy="973.7" r="17.2"/>
<ellipse transform="matrix(7.088900e-02 -0.9975 0.9975 7.088900e-02 -844.7592 1040.415)" class="st11" cx="136.1" cy="973.7" rx="17.2" ry="17.2"/>
<circle class="st11" cx="271.5" cy="973.7" r="17.2"/>
<circle class="st9" cx="924.4" cy="738" r="17.2"/>
<circle class="st8" cx="1059.8" cy="738" r="17.2"/>
<circle class="st9" cx="856.7" cy="1089.7" r="17.2"/>
<circle class="st8" cx="992.1" cy="1089.7" r="17.2"/>
<circle class="st9" cx="992.1" cy="855.2" r="17.2"/>
<circle class="st9" cx="1127.5" cy="855.2" r="17.2"/>
<circle class="st9" cx="721.3" cy="855.2" r="17.2"/>
<circle class="st8" cx="856.7" cy="855.2" r="17.2"/>
<circle class="st8" cx="1059.8" cy="972.5" r="17.2"/>
<circle class="st9" cx="1195.2" cy="972.5" r="17.2"/>
<circle class="st8" cx="789" cy="972.5" r="17.2"/>
<circle class="st10" cx="924.4" cy="972.5" r="17.2"/>
</svg>
